<?xml version="1.0" encoding="UTF-8"?>
<svg version="1.1" xmlns="http://www.w3.org/2000/svg" width="512" height="512">
<path d="M0 0 C2.01430044 1.20858026 3.70687742 2.47909318 5.4453125 4.0546875 C6.2084375 4.7353125 6.9715625 5.4159375 7.7578125 6.1171875 C10.43016074 10.76905295 11.30716484 15.84679973 12.4453125 21.0546875 C13.35779898 25.71039248 13.35779898 25.71039248 15.94140625 29.5703125 C19.60322808 31.74112731 23.48081106 32.63511488 27.5703125 33.7421875 C40.50808168 37.43801782 53.19875379 42.29041699 64.3046875 50.0234375 C67.26354992 51.44887487 69.19181226 51.47422862 72.4453125 51.0546875 C75.35174962 49.40084142 75.35174962 49.40084142 78.1328125 47.1796875 C84.4099178 42.79271428 89.97011824 40.56125578 97.69921875 41.2578125 C103.76792175 42.50149357 108.0593785 45.21926139 111.7578125 50.1171875 C115.22781801 56.15756745 115.28289554 62.23769222 114.4453125 69.0546875 C112.87464362 72.74774755 110.78928312 75.81533151 108.4453125 79.0546875 C105.72225752 82.91078374 104.74630567 85.32339336 105.4453125 90.0546875 C106.73798625 92.92452887 108.36660456 95.5602925 110.0078125 98.2421875 C117.21469525 110.59045683 121.81548296 123.78499429 125.42578125 137.5859375 C126.67355748 140.60737267 127.56042552 141.527961 130.4453125 143.0546875 C132.84503273 143.57720723 135.26610443 144.00575674 137.6953125 144.3671875 C145.15168618 145.67953083 150.10304149 147.77389912 154.80859375 153.80078125 C158.24133071 159.47482413 158.26986184 165.61452315 157.4453125 172.0546875 C155.93733115 178.02669311 152.5276948 181.55694658 147.359375 184.74609375 C143.0407283 186.68543242 138.57249286 187.73348355 133.94238281 188.67480469 C130.15633418 189.46714836 127.8698079 190.00708216 125.4453125 193.0546875 C124.54425441 195.23736146 124.54425441 195.23736146 123.9453125 197.6953125 C123.6978125 198.60152344 123.4503125 199.50773438 123.1953125 200.44140625 C122.8240625 201.85873047 122.8240625 201.85873047 122.4453125 203.3046875 C121.94984395 205.16527512 121.44992452 207.02468385 120.9453125 208.8828125 C120.62046875 210.1188623 120.62046875 210.1188623 120.2890625 211.37988281 C119.23366013 214.7256549 117.86535369 217.84677501 116.4453125 221.0546875 C117.57497688 221.05682503 117.57497688 221.05682503 118.72746277 221.05900574 C125.83412549 221.07685503 132.94015949 221.11852476 140.04648876 221.18677807 C143.69977675 221.22103084 147.35264736 221.24615521 151.00610352 221.25024414 C154.53375535 221.25453105 158.06046597 221.28302356 161.58782387 221.32811928 C163.58459628 221.34737956 165.58155864 221.34174064 167.57841492 221.33573914 C168.79930313 221.35538223 170.02019135 221.37502533 171.27807617 221.39526367 C172.88690926 221.40525642 172.88690926 221.40525642 174.52824402 221.41545105 C178.4987276 222.2855293 179.8791846 223.94567353 182.4453125 227.0546875 C183.06055164 230.01253223 183.06055164 230.01253223 183.04658508 233.35054016 C183.05689507 235.25403481 183.05689507 235.25403481 183.06741333 237.19598389 C183.04971985 238.59461045 183.03154583 239.99323099 183.01293945 241.3918457 C183.01152849 242.87039644 183.0123219 244.34895069 183.01515198 245.82749939 C183.0165857 249.83564768 182.9872038 253.84304677 182.95228219 257.85102105 C182.921011 262.04168915 182.91808736 266.23237471 182.91215515 270.42314148 C182.8966189 278.35631717 182.85559355 286.28914806 182.8054077 294.22217196 C182.74950732 303.25471542 182.72202602 312.2872754 182.69693053 321.31994879 C182.64467738 339.89839046 182.55673948 358.47651125 182.4453125 377.0546875 C183.18811462 377.04580505 183.93091675 377.03692261 184.69622803 377.027771 C191.69981155 376.94759006 198.70323585 376.88670564 205.70714951 376.84743881 C209.30789536 376.82657237 212.90826166 376.79827329 216.50878906 376.75292969 C219.98419163 376.70943625 223.45922938 376.68554329 226.93488312 376.67517853 C228.90477034 376.66420135 230.87451097 376.6329805 232.84417725 376.60150146 C234.64559174 376.60104828 234.64559174 376.60104828 236.48339844 376.60058594 C237.54040955 376.59170349 238.59742065 376.58282104 239.6864624 376.57366943 C243.20984222 377.18798674 244.3655127 378.17281651 246.4453125 381.0546875 C246.94867706 383.50349426 246.94867706 383.50349426 246.95324707 386.29223633 C246.96452637 387.35213776 246.97580566 388.41203918 246.98742676 389.50405884 C246.97932983 390.66158661 246.97123291 391.81911438 246.96289062 393.01171875 C246.97340454 394.84638199 246.97340454 394.84638199 246.98413086 396.71810913 C246.99872033 400.0696213 246.99530061 403.4201458 246.98261452 406.77160263 C246.97248291 410.27979606 246.98188063 413.78794748 246.98815918 417.29614258 C246.99543516 423.18741427 246.98584935 429.07848534 246.96679688 434.96972656 C246.94502799 441.77952432 246.95207941 448.58884304 246.9741025 455.39862919 C246.99225808 461.24674866 246.99481413 467.09472396 246.98434782 472.94286251 C246.97811366 476.43510222 246.97727484 479.92711682 246.99049377 483.41934204 C247.00420044 487.31230267 246.98519986 491.20472731 246.96289062 495.09765625 C246.97098755 496.25518402 246.97908447 497.41271179 246.98742676 498.60531616 C246.97614746 499.66521759 246.96486816 500.72511902 246.95324707 501.81713867 C246.95098492 503.19756599 246.95098492 503.19756599 246.94867706 504.60588074 C246.26992509 507.90792572 245.14487635 509.07086563 242.4453125 511.0546875 C239.84033203 511.55805206 239.84033203 511.55805206 236.828125 511.56262207 C235.68408203 511.57390137 234.54003906 511.58518066 233.36132812 511.59680176 C232.11029297 511.58870483 230.85925781 511.58060791 229.5703125 511.57226562 C228.23632035 511.57768718 226.9023342 511.58481004 225.56835938 511.59350586 C221.94845902 511.61173863 218.32901476 511.60467224 214.70910645 511.59198952 C210.9206418 511.58186145 207.13221618 511.59125465 203.34375 511.59753418 C196.98169952 511.60481118 190.61983478 511.59522163 184.2578125 511.57617188 C176.90271113 511.55440286 169.54805327 511.56145421 162.19296265 511.5834775 C155.87775883 511.60163012 149.56268852 511.60419055 143.24746704 511.59372282 C139.47577647 511.58748706 135.70429436 511.58665432 131.93261719 511.59986877 C128.38658897 511.61142485 124.84113247 511.60340694 121.29516602 511.58029175 C119.37321763 511.57248064 117.45122088 511.58436272 115.52929688 511.59680176 C114.38525391 511.58552246 113.24121094 511.57424316 112.0625 511.56262207 C111.06847168 511.56111397 110.07444336 511.55960587 109.05029297 511.55805206 C105.72671974 510.91583267 104.5583682 509.6391773 102.4453125 507.0546875 C101.21378691 504.59163631 101.31406549 502.97139948 101.30487061 500.2162323 C101.29916046 499.19418198 101.29345032 498.17213165 101.28756714 497.11911011 C101.28644928 495.99336578 101.28533142 494.86762146 101.28417969 493.70776367 C101.27921478 492.52556747 101.27424988 491.34337128 101.26913452 490.12535095 C101.25701315 486.87729754 101.24956424 483.62928014 101.24512386 480.38120818 C101.24219369 478.35194288 101.23808896 476.32268324 101.23361969 474.29342079 C101.21994227 467.9443849 101.2102772 461.59536193 101.2064178 455.24631232 C101.20193832 447.91734548 101.18439676 440.58856527 101.1554172 433.25965518 C101.13379622 427.59503618 101.12371328 421.93046966 101.12237668 416.26580983 C101.1213288 412.88250357 101.11542519 409.49937267 101.09755707 406.11610985 C101.08053845 402.34052705 101.08236694 398.56540032 101.08886719 394.78979492 C101.0796524 393.67012329 101.07043762 392.55045166 101.0609436 391.39685059 C101.06929733 389.85108589 101.06929733 389.85108589 101.07781982 388.27409363 C101.07635326 387.38163028 101.0748867 386.48916693 101.0733757 385.56965923 C101.53092122 382.47581626 102.63415678 380.58289227 104.4453125 378.0546875 C122.93254533 368.81107108 145.77595784 377.0546875 166.4453125 377.0546875 C166.4453125 331.1846875 166.4453125 285.3146875 166.4453125 238.0546875 C146.6453125 238.0546875 126.8453125 238.0546875 106.4453125 238.0546875 C104.98417547 247.70605639 104.98417547 247.70605639 109.3203125 254.4921875 C114.7061752 261.68897616 115.20046432 267.13310809 114.4453125 276.0546875 C112.77399911 281.72305762 108.19040118 285.77386052 103.4453125 289.0546875 C97.41429577 291.06502641 90.43729643 291.32718672 84.54296875 288.8203125 C81.26733159 286.83030135 78.20287853 284.60392287 75.1015625 282.35546875 C71.58365691 280.63272969 69.32991907 280.6048467 65.4453125 281.0546875 C62.00771878 282.58439942 62.00771878 282.58439942 58.6953125 284.7421875 C57.46168003 285.48517626 56.22597942 286.22474146 54.98828125 286.9609375 C54.3854834 287.321875 53.78268555 287.6828125 53.16162109 288.0546875 C43.70264301 293.56592139 33.04680745 296.81589104 22.59375 299.89453125 C21.80226563 300.13300781 21.01078125 300.37148438 20.1953125 300.6171875 C19.53015625 300.80410156 18.865 300.99101562 18.1796875 301.18359375 C15.72937056 302.41427095 14.81977453 303.68025455 13.4453125 306.0546875 C12.9248519 308.2659566 12.4954705 310.49962882 12.1328125 312.7421875 C10.8556091 319.16163914 9.02537333 324.27411709 4.4453125 329.0546875 C3.5999292 329.37711426 2.7545459 329.69954102 1.88354492 330.03173828 C-0.69693982 331.76077551 -0.69693982 331.76077551 -1.03381348 334.0627594 C-1.23283818 336.7819832 -1.27278629 339.46483706 -1.26171875 342.19140625 C-1.27684006 343.18598343 -1.29196136 344.18056061 -1.30754089 345.20527649 C-1.3505568 348.38447495 -1.35926944 351.56272652 -1.3671875 354.7421875 C-1.39032095 356.8965098 -1.41568386 359.05080939 -1.44335938 361.20507812 C-1.50634837 366.48829008 -1.54117261 371.77112994 -1.5546875 377.0546875 C-0.81188538 377.04580505 -0.06908325 377.03692261 0.69622803 377.027771 C7.69981155 376.94759006 14.70323585 376.88670564 21.70714951 376.84743881 C25.30789536 376.82657237 28.90826166 376.79827329 32.50878906 376.75292969 C35.98419163 376.70943625 39.45922938 376.68554329 42.93488312 376.67517853 C44.90477034 376.66420135 46.87451097 376.6329805 48.84417725 376.60150146 C50.64559174 376.60104828 50.64559174 376.60104828 52.48339844 376.60058594 C53.54040955 376.59170349 54.59742065 376.58282104 55.6864624 376.57366943 C59.15729786 377.17882539 60.2996903 378.31327871 62.4453125 381.0546875 C63.4222967 383.98564009 63.57536787 385.87775673 63.58575439 388.93074036 C63.59146454 389.93589188 63.59717468 390.9410434 63.60305786 391.97665405 C63.60417572 393.07853058 63.60529358 394.1804071 63.60644531 395.31567383 C63.61141022 396.47690262 63.61637512 397.63813141 63.62149048 398.83454895 C63.63612419 402.68527819 63.6429161 406.53596624 63.6484375 410.38671875 C63.652735 412.38344109 63.65703302 414.38016343 63.661412 416.37688559 C63.67322281 421.94133817 63.68076024 427.50578077 63.6842072 433.07024461 C63.68868638 440.26109173 63.70622876 447.45174861 63.7352078 454.64253789 C63.75684242 460.20443351 63.76691244 465.76627568 63.76824832 471.32821292 C63.76929515 474.64839086 63.77662713 477.9683494 63.79306793 481.2884922 C63.81010874 484.99431419 63.80825264 488.69967238 63.80175781 492.40551758 C63.8109726 493.50132141 63.82018738 494.59712524 63.8296814 495.72613525 C63.79949559 501.22008923 63.66640407 505.36304294 60.4453125 510.0546875 C57.85396627 511.35036062 55.9715751 511.18940143 53.06863403 511.20185852 C51.35669357 511.21259148 51.35669357 511.21259148 49.61016846 511.22354126 C47.7228299 511.22757462 47.7228299 511.22757462 45.79736328 511.23168945 C44.4636721 511.23795342 43.12998267 511.24460016 41.79629517 511.25160217 C38.16816764 511.26901623 34.54005329 511.2795647 30.91189432 511.2878077 C28.64611361 511.29295628 26.38033699 511.29903203 24.11455917 511.30531883 C17.02816292 511.32437078 9.9417771 511.33860274 2.85536015 511.3469308 C-5.32999502 511.35670877 -13.51508016 511.3830426 -21.70034015 511.42343169 C-28.0239599 511.45356629 -34.34750212 511.46839707 -40.67119229 511.47171181 C-44.44966741 511.47406507 -48.22785406 511.48306088 -52.00625229 511.50817299 C-55.56039161 511.53141313 -59.11405169 511.53570375 -62.66824722 511.52541161 C-64.59503523 511.52467834 -66.52179868 511.54379754 -68.44848633 511.56347656 C-70.16888626 511.55306084 -70.16888626 511.55306084 -71.92404175 511.54243469 C-72.92066771 511.54482305 -73.91729366 511.5472114 -74.94412041 511.54967213 C-78.29742945 510.91385762 -79.45917836 509.69708603 -81.5546875 507.0546875 C-82.5316717 504.12373491 -82.68474287 502.23161827 -82.69512939 499.17863464 C-82.70083954 498.17348312 -82.70654968 497.1683316 -82.71243286 496.13272095 C-82.71410965 494.47990616 -82.71410965 494.47990616 -82.71582031 492.79370117 C-82.72078522 491.63247238 -82.72575012 490.47124359 -82.73086548 489.27482605 C-82.74549919 485.42409681 -82.7522911 481.57340876 -82.7578125 477.72265625 C-82.76211 475.72593391 -82.76640802 473.72921157 -82.770787 471.73248941 C-82.78259781 466.16803683 -82.79013524 460.60359423 -82.7935822 455.03913039 C-82.79806138 447.84828327 -82.81560376 440.65762639 -82.8445828 433.46683711 C-82.86621742 427.90494149 -82.87628744 422.34309932 -82.87762332 416.78116208 C-82.87867015 413.46098414 -82.88600213 410.1410256 -82.90244293 406.8208828 C-82.91948374 403.11506081 -82.91762764 399.40970262 -82.91113281 395.70385742 C-82.92495499 394.06015167 -82.92495499 394.06015167 -82.9390564 392.38323975 C-82.90887059 386.88928577 -82.77577907 382.74633206 -79.5546875 378.0546875 C-76.87369697 376.71419223 -74.82157544 376.9348823 -71.81982422 376.94116211 C-70.01818314 376.94127541 -70.01818314 376.94127541 -68.18014526 376.94139099 C-66.87804108 376.94655228 -65.57593689 376.95171356 -64.234375 376.95703125 C-62.89201917 376.95889612 -61.54966266 376.9603197 -60.20730591 376.96131897 C-56.67273075 376.96513872 -53.13819663 376.97496438 -49.6036377 376.98602295 C-45.99748286 376.99624872 -42.3913214 377.00081909 -38.78515625 377.00585938 C-31.70831654 377.01658712 -24.6315047 377.03365705 -17.5546875 377.0546875 C-17.52020738 370.73688114 -17.5400448 364.42090697 -17.59741211 358.10327148 C-17.61054075 355.954874 -17.61129627 353.80636345 -17.59936523 351.65795898 C-17.58435426 348.56641344 -17.61403127 345.47800709 -17.65234375 342.38671875 C-17.63808853 341.42820511 -17.62383331 340.46969147 -17.60914612 339.48213196 C-17.61990897 334.4870528 -17.61990897 334.4870528 -20.11428833 330.38204956 C-21.96275912 329.02772129 -21.96275912 329.02772129 -23.89189148 328.00187683 C-27.76106525 325.79785417 -29.1046493 321.0449778 -30.5546875 317.0546875 C-31.41166777 313.66150887 -32.14945333 310.28190482 -32.78125 306.83984375 C-33.62826912 303.78971934 -33.94511303 302.79262132 -36.5546875 301.0546875 C-39.18512037 300.15860597 -41.75017138 299.38772791 -44.4296875 298.6796875 C-75.7420774 289.8672976 -75.7420774 289.8672976 -84.5546875 281.0546875 C-90.29133454 280.49031002 -93.72865482 281.82586122 -98.3671875 284.9921875 C-99.49854877 285.73069728 -100.63005289 286.4689883 -101.76171875 287.20703125 C-103.14423828 288.12162109 -103.14423828 288.12162109 -104.5546875 289.0546875 C-109.32402669 291.4393571 -116.73332746 290.8850878 -121.7578125 289.40625 C-127.03528298 286.62488042 -131.66987183 281.70913452 -133.5546875 276.0546875 C-134.13559831 267.6873376 -133.98878654 261.84320219 -129.01953125 254.9140625 C-124.78524205 249.08767969 -124.78524205 249.08767969 -124.5546875 242.0546875 C-124.8846875 240.7346875 -125.2146875 239.4146875 -125.5546875 238.0546875 C-145.3546875 238.0546875 -165.1546875 238.0546875 -185.5546875 238.0546875 C-185.5546875 283.9246875 -185.5546875 329.7946875 -185.5546875 377.0546875 C-165.7546875 377.0546875 -145.9546875 377.0546875 -125.5546875 377.0546875 C-120.43332539 382.17604961 -120.43332539 382.17604961 -120.41424561 387.8931427 C-120.40853546 388.91519302 -120.40282532 389.93724335 -120.39694214 390.99026489 C-120.39526535 392.67888138 -120.39526535 392.67888138 -120.39355469 394.40161133 C-120.38858978 395.58380753 -120.38362488 396.76600372 -120.37850952 397.98402405 C-120.36638815 401.23207746 -120.35893924 404.48009486 -120.35449886 407.72816682 C-120.35156869 409.75743212 -120.34746396 411.78669176 -120.34299469 413.81595421 C-120.32931727 420.1649901 -120.3196522 426.51401307 -120.3157928 432.86306268 C-120.31131332 440.19202952 -120.29377176 447.52080973 -120.2647922 454.84971982 C-120.24317122 460.51433882 -120.23308828 466.17890534 -120.23175168 471.84356517 C-120.2307038 475.22687143 -120.22480019 478.61000233 -120.20693207 481.99326515 C-120.18991345 485.76884795 -120.19174194 489.54397468 -120.19824219 493.31958008 C-120.1890274 494.43925171 -120.17981262 495.55892334 -120.1703186 496.71252441 C-120.17867233 498.25828911 -120.17867233 498.25828911 -120.18719482 499.83528137 C-120.18572826 500.72774472 -120.1842617 501.62020807 -120.1827507 502.53971577 C-120.64029622 505.63355874 -121.74353178 507.52648273 -123.5546875 510.0546875 C-126.14603373 511.35036062 -128.0284249 511.18940143 -130.93136597 511.20185852 C-132.64330643 511.21259148 -132.64330643 511.21259148 -134.38983154 511.22354126 C-136.2771701 511.22757462 -136.2771701 511.22757462 -138.20263672 511.23168945 C-139.5363279 511.23795342 -140.87001733 511.24460016 -142.20370483 511.25160217 C-145.83183236 511.26901623 -149.45994671 511.2795647 -153.08810568 511.2878077 C-155.35388639 511.29295628 -157.61966301 511.29903203 -159.88544083 511.30531883 C-166.97183708 511.32437078 -174.0582229 511.33860274 -181.14463985 511.3469308 C-189.32999502 511.35670877 -197.51508016 511.3830426 -205.70034015 511.42343169 C-212.0239599 511.45356629 -218.34750212 511.46839707 -224.67119229 511.47171181 C-228.44966741 511.47406507 -232.22785406 511.48306088 -236.00625229 511.50817299 C-239.56039161 511.53141313 -243.11405169 511.53570375 -246.66824722 511.52541161 C-248.59503523 511.52467834 -250.52179868 511.54379754 -252.44848633 511.56347656 C-253.59541962 511.55653275 -254.74235291 511.54958893 -255.92404175 511.54243469 C-256.92066771 511.54482305 -257.91729366 511.5472114 -258.94412041 511.54967213 C-262.3552608 510.90289233 -263.51847336 509.83883982 -265.5546875 507.0546875 C-266.05805206 504.60588074 -266.05805206 504.60588074 -266.06262207 501.81713867 C-266.07390137 500.75723724 -266.08518066 499.69733582 -266.09680176 498.60531616 C-266.08465637 496.86902451 -266.08465637 496.86902451 -266.07226562 495.09765625 C-266.0792749 493.87454742 -266.08628418 492.6514386 -266.09350586 491.39126587 C-266.10809533 488.0397537 -266.10467561 484.6892292 -266.09198952 481.33777237 C-266.08185791 477.82957894 -266.09125563 474.32142752 -266.09753418 470.81323242 C-266.10481016 464.92196073 -266.09522435 459.03088966 -266.07617188 453.13964844 C-266.05440299 446.32985068 -266.06145441 439.52053196 -266.0834775 432.71074581 C-266.10163308 426.86262634 -266.10418913 421.01465104 -266.09372282 415.16651249 C-266.08748866 411.67427278 -266.08664984 408.18225818 -266.09986877 404.69003296 C-266.11357544 400.79707233 -266.09457486 396.90464769 -266.07226562 393.01171875 C-266.08036255 391.85419098 -266.08845947 390.69666321 -266.09680176 389.50405884 C-266.08552246 388.44415741 -266.07424316 387.38425598 -266.06262207 386.29223633 C-266.06111397 385.37195145 -266.05960587 384.45166656 -266.05805206 383.50349426 C-265.37695275 380.19002977 -264.27659411 379.03260589 -261.5546875 377.0546875 C-258.7958374 376.57366943 -258.7958374 376.57366943 -255.59277344 376.60058594 C-254.39183044 376.60088806 -253.19088745 376.60119019 -251.95355225 376.60150146 C-250.66177063 376.62214661 -249.36998901 376.64279175 -248.0390625 376.6640625 C-246.69957321 376.67152679 -245.36007298 376.67721884 -244.02056885 376.68121338 C-240.50217314 376.69645537 -236.98444235 376.73572332 -233.46630859 376.7800293 C-229.87346389 376.82101386 -226.2805113 376.8392311 -222.6875 376.859375 C-215.64295784 376.90222005 -208.59886618 376.97045304 -201.5546875 377.0546875 C-201.55929646 376.28623662 -201.56390543 375.51778574 -201.56865406 374.72604847 C-201.67905815 356.03110748 -201.76180747 337.33623152 -201.81374836 318.64103413 C-201.83953403 309.60016996 -201.87469139 300.55952336 -201.93188477 291.51879883 C-201.98170875 283.63922217 -202.01397588 275.75980306 -202.02512997 267.88007325 C-202.0316505 263.70742585 -202.04698263 259.53522919 -202.08333778 255.36272621 C-202.11728172 251.43513044 -202.12774394 247.50817095 -202.12022591 243.58044243 C-202.1216012 242.13926866 -202.131544 240.69807358 -202.15071487 239.25702667 C-202.17561978 237.28835458 -202.16662379 235.3193409 -202.15596008 233.35054016 C-202.16056905 232.24899755 -202.16517801 231.14745493 -202.16992664 230.01253223 C-201.3492161 226.06685618 -199.64032721 224.55898422 -196.5546875 222.0546875 C-193.63761902 221.41545105 -193.63761902 221.41545105 -190.38745117 221.39526367 C-189.16656296 221.37562057 -187.94567474 221.35597748 -186.68778992 221.33573914 C-185.37929581 221.33967178 -184.0708017 221.34360443 -182.72265625 221.34765625 C-181.36214491 221.33453315 -180.00165303 221.31922703 -178.64118958 221.30183411 C-175.07204885 221.26204101 -171.50341841 221.25179751 -167.93408203 221.24780273 C-164.28727799 221.23846029 -160.64077244 221.20103999 -156.99414062 221.16601562 C-149.84770028 221.10149859 -142.70142107 221.0682104 -135.5546875 221.0546875 C-135.96968506 219.97799805 -136.38468262 218.90130859 -136.81225586 217.79199219 C-137.36074428 216.35360329 -137.90898984 214.91512177 -138.45703125 213.4765625 C-138.73011108 212.76999512 -139.00319092 212.06342773 -139.2845459 211.33544922 C-141.25770461 206.13552527 -142.63339796 200.98990697 -143.62109375 195.5078125 C-144.9202516 192.09412575 -146.45716969 190.96822811 -149.5546875 189.0546875 C-152.21064139 188.28118945 -154.7318922 187.65524151 -157.4296875 187.1171875 C-164.34602757 185.54032441 -169.35967145 184.19565996 -173.84765625 178.37890625 C-177.31617905 172.66117071 -177.39585475 166.55620935 -176.5546875 160.0546875 C-175.06090695 154.47168271 -171.86730932 150.58472583 -167.171875 147.2890625 C-162.68977691 145.17511773 -157.91439502 144.63017501 -153.04296875 143.98828125 C-148.71011338 142.82864807 -147.22586306 141.65068132 -144.5546875 138.0546875 C-143.30462949 135.0197736 -142.49208897 131.9182947 -141.6796875 128.7421875 C-138.06232953 115.75425127 -133.22510611 104.0326044 -125.83984375 92.703125 C-124.25843915 89.44418179 -124.04588944 87.64353094 -124.5546875 84.0546875 C-125.78764541 81.63932575 -126.99341354 79.53363339 -128.4921875 77.3046875 C-129.23078276 76.16426581 -129.96907736 75.02364932 -130.70703125 73.8828125 C-131.31675781 72.94953125 -131.92648438 72.01625 -132.5546875 71.0546875 C-134.75251196 66.65903859 -133.87646969 60.85216746 -133.5546875 56.0546875 C-131.62906313 50.37916305 -127.97284498 46.93547665 -123.3046875 43.3046875 C-116.8082179 40.35174677 -110.79642744 40.67027365 -104.10546875 42.88671875 C-100.32841426 44.61618168 -97.19399327 47.02149172 -93.9765625 49.62890625 C-90.78249284 51.50928597 -89.22686019 51.61689134 -85.5546875 51.0546875 C-82.68524812 49.76098888 -80.04915201 48.13343797 -77.3671875 46.4921875 C-65.01891817 39.28530475 -51.82438071 34.68451704 -38.0234375 31.07421875 C-35.01570305 29.83210057 -34.09412489 28.91157445 -32.5546875 26.0546875 C-31.69168641 22.79921547 -31.69168641 22.79921547 -31.1171875 19.2421875 C-29.50601051 11.20299869 -27.61426253 5.81990065 -20.5546875 1.0546875 C-14.81229581 -2.51490734 -6.20323701 -2.2953874 0 0 Z " fill="#61A2F9" transform="translate(265.5546875,0.9453125)"/>
<path d="M0 0 C19.67022066 16.08715797 35.43547443 40.09937919 38.49536133 65.77124023 C39.60712301 83.52867627 39.72299106 101.53627025 33.24536133 118.33374023 C32.77912354 119.56169312 32.77912354 119.56169312 32.3034668 120.81445312 C21.79461392 147.89124481 1.37381333 167.97951759 -24.61010742 180.23608398 C-46.0792829 189.18837642 -73.18332917 191.95009889 -95.50463867 184.77124023 C-96.61838867 184.4425293 -97.73213867 184.11381836 -98.87963867 183.77514648 C-112.50129696 179.38155358 -124.77421828 172.20377332 -135.50463867 162.77124023 C-136.33350586 162.08545898 -137.16237305 161.39967773 -138.01635742 160.69311523 C-155.97398144 145.40300964 -169.58566666 120.46841235 -171.50463867 96.77124023 C-172.47918072 79.75069366 -172.83936699 62.85858701 -166.50463867 46.77124023 C-166.04589355 45.59779053 -166.04589355 45.59779053 -165.57788086 44.40063477 C-154.48507049 17.00874447 -134.10926405 -3.47219646 -107.16479492 -15.35375977 C-100.75102474 -18.02759516 -94.29086153 -19.75773421 -87.50463867 -21.22875977 C-86.68608398 -21.45176758 -85.8675293 -21.67477539 -85.02416992 -21.90454102 C-56.47158849 -29.12868813 -22.43262229 -17.77470251 0 0 Z " fill="#EBF3FE" transform="translate(322.504638671875,84.228759765625)"/>
<path d="M0 0 C5.28 0 10.56 0 16 0 C16 14.85 16 29.7 16 45 C20.28484375 44.95359375 24.5696875 44.9071875 28.984375 44.859375 C32.40310194 44.83364719 35.82180148 44.8119575 39.24057007 44.79299927 C42.84840349 44.77188484 46.45586045 44.74367507 50.06347656 44.69824219 C53.53887913 44.65474875 57.01391688 44.63085579 60.48957062 44.62049103 C62.45945784 44.60951385 64.42919847 44.578293 66.39886475 44.54681396 C68.20027924 44.54636078 68.20027924 44.54636078 70.03808594 44.54589844 C71.6236026 44.53257477 71.6236026 44.53257477 73.2411499 44.51898193 C76.71198536 45.12413789 77.8543778 46.25859121 80 49 C80.9769842 51.93095259 81.13005537 53.82306923 81.14044189 56.87605286 C81.14615204 57.88120438 81.15186218 58.8863559 81.15774536 59.92196655 C81.15942215 61.57478134 81.15942215 61.57478134 81.16113281 63.26098633 C81.16609772 64.42221512 81.17106262 65.58344391 81.17617798 66.77986145 C81.19081169 70.63059069 81.1976036 74.48127874 81.203125 78.33203125 C81.2074225 80.32875359 81.21172052 82.32547593 81.2160995 84.32219809 C81.22791031 89.88665067 81.23544774 95.45109327 81.2388947 101.01555711 C81.24337388 108.20640423 81.26091626 115.39706111 81.2898953 122.58785039 C81.31152992 128.14974601 81.32159994 133.71158818 81.32293582 139.27352542 C81.32398265 142.59370336 81.33131463 145.9136619 81.34775543 149.2338047 C81.36479624 152.93962669 81.36294014 156.64498488 81.35644531 160.35083008 C81.3656601 161.44663391 81.37487488 162.54243774 81.3843689 163.67144775 C81.35418309 169.16540173 81.22109157 173.30835544 78 178 C75.40865377 179.29567312 73.5262626 179.13471393 70.62332153 179.14717102 C68.91138107 179.15790398 68.91138107 179.15790398 67.16485596 179.16885376 C65.90663025 179.17154266 64.64840454 179.17423157 63.35205078 179.17700195 C62.0183596 179.18326592 60.68467017 179.18991266 59.35098267 179.19691467 C55.72285514 179.21432873 52.09474079 179.2248772 48.46658182 179.2331202 C46.20080111 179.23826878 43.93502449 179.24434453 41.66924667 179.25063133 C34.58285042 179.26968328 27.4964646 179.28391524 20.41004765 179.2922433 C12.22469248 179.30202127 4.03960734 179.3283551 -4.14565265 179.36874419 C-10.4692724 179.39887879 -16.79281462 179.41370957 -23.11650479 179.41702431 C-26.89497991 179.41937757 -30.67316656 179.42837338 -34.45156479 179.45348549 C-38.00570411 179.47672563 -41.55936419 179.48101625 -45.11355972 179.47072411 C-47.04034773 179.46999084 -48.96711118 179.48911004 -50.89379883 179.50878906 C-52.04073212 179.50184525 -53.18766541 179.49490143 -54.36935425 179.48774719 C-55.36598021 179.49013555 -56.36260616 179.4925239 -57.38943291 179.49498463 C-60.74274195 178.85917012 -61.90449086 177.64239853 -64 175 C-64.9769842 172.06904741 -65.13005537 170.17693077 -65.14044189 167.12394714 C-65.14615204 166.11879562 -65.15186218 165.1136441 -65.15774536 164.07803345 C-65.15886322 162.97615692 -65.15998108 161.8742804 -65.16113281 160.73901367 C-65.16609772 159.57778488 -65.17106262 158.41655609 -65.17617798 157.22013855 C-65.19081169 153.36940931 -65.1976036 149.51872126 -65.203125 145.66796875 C-65.2074225 143.67124641 -65.21172052 141.67452407 -65.2160995 139.67780191 C-65.22791031 134.11334933 -65.23544774 128.54890673 -65.2388947 122.98444289 C-65.24337388 115.79359577 -65.26091626 108.60293889 -65.2898953 101.41214961 C-65.31152992 95.85025399 -65.32159994 90.28841182 -65.32293582 84.72647458 C-65.32398265 81.40629664 -65.33131463 78.0863381 -65.34775543 74.7661953 C-65.36479624 71.06037331 -65.36294014 67.35501512 -65.35644531 63.64916992 C-65.3656601 62.55336609 -65.37487488 61.45756226 -65.3843689 60.32855225 C-65.35418309 54.83459827 -65.22109157 50.69164456 -62 46 C-59.31900947 44.65950473 -57.26688794 44.8801948 -54.26513672 44.88647461 C-52.46349564 44.88658791 -52.46349564 44.88658791 -50.62545776 44.88670349 C-48.67230148 44.89444542 -48.67230148 44.89444542 -46.6796875 44.90234375 C-45.33733167 44.90420862 -43.99497516 44.9056322 -42.65261841 44.90663147 C-39.11804325 44.91045122 -35.58350913 44.92027688 -32.0489502 44.93133545 C-28.44279546 44.94156122 -24.83663391 44.94618635 -21.23046875 44.95117188 C-14.15360958 44.96136908 -7.07686312 44.98094202 0 45 C0 30.15 0 15.3 0 0 Z " fill="#61A1F7" transform="translate(248,333)"/>
<path d="M0 0 C1.14129364 -0.0071553 2.28258728 -0.01431061 3.45846558 -0.02168274 C4.71669128 -0.02437164 5.97491699 -0.02706055 7.27127075 -0.02983093 C8.60496193 -0.0360949 9.93865136 -0.04274164 11.27233887 -0.04974365 C14.9004664 -0.0671577 18.52858075 -0.07770618 22.15673971 -0.08594918 C24.42252043 -0.09109776 26.68829704 -0.09717351 28.95407486 -0.10346031 C36.04047111 -0.12251226 43.12685694 -0.13674422 50.21327388 -0.14507228 C58.39862905 -0.15485025 66.5837142 -0.18118408 74.76897418 -0.22157317 C81.09259393 -0.25170777 87.41613615 -0.26653855 93.73982632 -0.26985329 C97.51830144 -0.27220655 101.29648809 -0.28120236 105.07488632 -0.30631447 C108.62902564 -0.32955461 112.18268572 -0.33384523 115.73688126 -0.32355309 C117.66366926 -0.32281982 119.59043271 -0.34193902 121.51712036 -0.36161804 C122.66405365 -0.35467422 123.81098694 -0.34773041 124.99267578 -0.34057617 C125.98930174 -0.34296453 126.9859277 -0.34535288 128.01275444 -0.34781361 C131.42389484 0.29896619 132.58710739 1.3630187 134.62332153 4.14717102 C135.1266861 6.59597778 135.1266861 6.59597778 135.1312561 9.38471985 C135.1425354 10.44462128 135.1538147 11.50452271 135.16543579 12.59654236 C135.15733887 13.75407013 135.14924194 14.9115979 135.14089966 16.10420227 C135.14790894 17.3273111 135.15491821 18.55041992 135.16213989 19.81059265 C135.17672937 23.16210482 135.17330965 26.51262932 135.16062355 29.86408615 C135.15049194 33.37227958 135.15988966 36.880431 135.16616821 40.3886261 C135.17344419 46.27989779 135.16385839 52.17096886 135.14480591 58.06221008 C135.12303702 64.87200784 135.13008845 71.68132656 135.15211153 78.49111271 C135.17026711 84.33923218 135.17282316 90.18720749 135.16235685 96.03534603 C135.1561227 99.52758574 135.15528387 103.01960034 135.16850281 106.51182556 C135.18220947 110.40478619 135.16320889 114.29721083 135.14089966 118.19013977 C135.14899658 119.34766754 135.15709351 120.50519531 135.16543579 121.69779968 C135.15415649 122.75770111 135.1428772 123.81760254 135.1312561 124.90962219 C135.129748 125.82990707 135.1282399 126.75019196 135.1266861 127.69836426 C134.44793412 131.00040924 133.32288538 132.16334915 130.62332153 134.14717102 C128.01834106 134.65053558 128.01834106 134.65053558 125.00613403 134.65510559 C123.29006958 134.67202454 123.29006958 134.67202454 121.53933716 134.68928528 C120.288302 134.68118835 119.03726685 134.67309143 117.74832153 134.66474915 C116.41432939 134.6701707 115.08034323 134.67729356 113.74636841 134.68598938 C110.12646805 134.70422215 106.50702379 134.69715576 102.88711548 134.68447304 C99.09865084 134.67434497 95.31022521 134.68373817 91.52175903 134.6900177 C85.15970855 134.6972947 78.79784381 134.68770515 72.43582153 134.6686554 C65.08072016 134.64688639 57.7260623 134.65393773 50.37097168 134.67596102 C44.05576786 134.69411364 37.74069755 134.69667407 31.42547607 134.68620634 C27.6537855 134.67997058 23.88230339 134.67913784 20.11062622 134.69235229 C16.564598 134.70390837 13.01914151 134.69589046 9.47317505 134.67277527 C7.55122666 134.66496416 5.62922991 134.67684624 3.70730591 134.68928528 C2.56326294 134.67800598 1.41921997 134.66672668 0.24050903 134.65510559 C-0.75351929 134.65359749 -1.74754761 134.65208939 -2.771698 134.65053558 C-6.09527122 134.00831619 -7.26362277 132.73166082 -9.37667847 130.14717102 C-10.60820406 127.68411983 -10.50792548 126.063883 -10.51712036 123.30871582 C-10.52283051 122.2866655 -10.52854065 121.26461517 -10.53442383 120.21159363 C-10.53554169 119.0858493 -10.53665955 117.96010498 -10.53781128 116.80024719 C-10.54277618 115.61805099 -10.54774109 114.4358548 -10.55285645 113.21783447 C-10.56497781 109.96978106 -10.57242672 106.72176366 -10.5768671 103.4736917 C-10.57979728 101.4444264 -10.58390201 99.41516676 -10.58837128 97.38590431 C-10.60204869 91.03686842 -10.61171376 84.68784545 -10.61557317 78.33879584 C-10.62005264 71.009829 -10.63759421 63.68104879 -10.66657376 56.3521387 C-10.68819474 50.6875197 -10.69827769 45.02295318 -10.69961429 39.35829335 C-10.70066216 35.97498709 -10.70656578 32.59185619 -10.7244339 29.20859337 C-10.74145251 25.43301057 -10.73962403 21.65788384 -10.73312378 17.88227844 C-10.74233856 16.76260681 -10.75155334 15.64293518 -10.76104736 14.48933411 C-10.75547821 13.45882431 -10.74990906 12.42831451 -10.74417114 11.36657715 C-10.7456377 10.4741138 -10.74710426 9.58165045 -10.74861526 8.66214275 C-10.29106974 5.56829978 -9.18783419 3.67537579 -7.37667847 1.14717102 C-4.78533224 -0.1485021 -2.90294106 0.01245709 0 0 Z " fill="#FDDE7C" transform="translate(377.3766784667969,377.8528289794922)"/>
<path d="M0 0 C1.14404297 -0.0112793 2.28808594 -0.02255859 3.46679688 -0.03417969 C5.34334961 -0.0220343 5.34334961 -0.0220343 7.2578125 -0.00964355 C8.59180465 -0.01506511 9.9257908 -0.02218797 11.25976562 -0.03088379 C14.87966598 -0.04911656 18.49911024 -0.04205017 22.11901855 -0.02936745 C25.9074832 -0.01923938 29.69590882 -0.02863258 33.484375 -0.03491211 C39.84642548 -0.04218911 46.20829022 -0.03259956 52.5703125 -0.0135498 C59.92541387 0.00821921 67.28007173 0.00116786 74.63516235 -0.02085543 C80.95036617 -0.03900805 87.26543648 -0.04156848 93.58065796 -0.03110075 C97.35234853 -0.02486499 101.12383064 -0.02403225 104.89550781 -0.0372467 C108.44153603 -0.04880278 111.98699253 -0.04078487 115.53295898 -0.01766968 C117.45490737 -0.00985857 119.37690412 -0.02174065 121.29882812 -0.03417969 C123.01489258 -0.01726074 123.01489258 -0.01726074 124.765625 0 C125.75965332 0.0015081 126.75368164 0.0030162 127.77783203 0.00457001 C131.10140526 0.6467894 132.2697568 1.92344477 134.3828125 4.50793457 C135.61433809 6.97098576 135.51405951 8.59122259 135.52325439 11.34638977 C135.52896454 12.36844009 135.53467468 13.39049042 135.54055786 14.44351196 C135.54223465 16.13212845 135.54223465 16.13212845 135.54394531 17.8548584 C135.54891022 19.0370546 135.55387512 20.21925079 135.55899048 21.43727112 C135.57111185 24.68532453 135.57856076 27.93334193 135.58300114 31.18141389 C135.58593131 33.21067919 135.59003604 35.23993883 135.59450531 37.26920128 C135.60818273 43.61823717 135.6178478 49.96726014 135.6217072 56.31630975 C135.62618668 63.64527659 135.64372824 70.9740568 135.6727078 78.30296689 C135.69432878 83.96758589 135.70441172 89.63215241 135.70574832 95.29681224 C135.7067962 98.6801185 135.71269981 102.0632494 135.73056793 105.44651222 C135.74758655 109.22209502 135.74575806 112.99722175 135.73925781 116.77282715 C135.7484726 117.89249878 135.75768738 119.01217041 135.7671814 120.16577148 C135.75882767 121.71153618 135.75882767 121.71153618 135.75030518 123.28852844 C135.75177174 124.18099179 135.7532383 125.07345514 135.7547493 125.99296284 C135.29720378 129.08680581 134.19396822 130.9797298 132.3828125 133.50793457 C129.79146627 134.80360769 127.9090751 134.6426485 125.00613403 134.65510559 C123.29419357 134.66583855 123.29419357 134.66583855 121.54766846 134.67678833 C120.28944275 134.67947723 119.03121704 134.68216614 117.73486328 134.68493652 C116.4011721 134.69120049 115.06748267 134.69784723 113.73379517 134.70484924 C110.10566764 134.7222633 106.47755329 134.73281177 102.84939432 134.74105477 C100.58361361 134.74620335 98.31783699 134.7522791 96.05205917 134.7585659 C88.96566292 134.77761785 81.8792771 134.79184981 74.79286015 134.80017787 C66.60750498 134.80995584 58.42241984 134.83628967 50.23715985 134.87667876 C43.9135401 134.90681336 37.58999788 134.92164414 31.26630771 134.92495888 C27.48783259 134.92731214 23.70964594 134.93630795 19.93124771 134.96142006 C16.37710839 134.9846602 12.82344831 134.98895082 9.26925278 134.97865868 C7.34246477 134.97792541 5.41570132 134.99704461 3.48901367 135.01672363 C2.34208038 135.00977982 1.19514709 135.002836 0.01345825 134.99568176 C-0.98316771 134.99807012 -1.97979366 135.00045847 -3.00662041 135.0029192 C-6.4177608 134.3561394 -7.58097336 133.29208689 -9.6171875 130.50793457 C-10.12055206 128.05912781 -10.12055206 128.05912781 -10.12512207 125.27038574 C-10.13640137 124.21048431 -10.14768066 123.15058289 -10.15930176 122.05856323 C-10.15120483 120.90103546 -10.14310791 119.74350769 -10.13476562 118.55090332 C-10.1417749 117.32779449 -10.14878418 116.10468567 -10.15600586 114.84451294 C-10.17059533 111.49300077 -10.16717561 108.14247627 -10.15448952 104.79101944 C-10.14435791 101.28282601 -10.15375563 97.77467459 -10.16003418 94.26647949 C-10.16731016 88.3752078 -10.15772435 82.48413673 -10.13867188 76.59289551 C-10.11690299 69.78309775 -10.12395441 62.97377903 -10.1459775 56.16399288 C-10.16413308 50.31587341 -10.16668913 44.46789811 -10.15622282 38.61975956 C-10.14998866 35.12751985 -10.14914984 31.63550525 -10.16236877 28.14328003 C-10.17607544 24.2503194 -10.15707486 20.35789476 -10.13476562 16.46496582 C-10.14286255 15.30743805 -10.15095947 14.14991028 -10.15930176 12.95730591 C-10.14802246 11.89740448 -10.13674316 10.83750305 -10.12512207 9.7454834 C-10.12361397 8.82519852 -10.12210587 7.90491364 -10.12055206 6.95674133 C-8.95558692 1.28932905 -5.33463462 0.00809351 0 0 Z " fill="#EBF2FD" transform="translate(9.6171875,377.4920654296875)"/>
<path d="M0 0 C4.62640153 -0.09901748 9.25218387 -0.17153649 13.87939453 -0.21972656 C15.45274604 -0.2398188 17.02602308 -0.26709799 18.59912109 -0.30175781 C20.86314272 -0.35038494 23.12617573 -0.37299135 25.390625 -0.390625 C26.09181458 -0.41127014 26.79300415 -0.43191528 27.51544189 -0.45318604 C30.94731378 -0.45475611 32.6791217 -0.25257316 35.41308594 1.89941406 C37.83646851 5.10722693 38.12719607 6.86945657 38.14044189 10.8384552 C38.14615204 11.86050552 38.15186218 12.88255585 38.15774536 13.93557739 C38.15942215 15.62419388 38.15942215 15.62419388 38.16113281 17.34692383 C38.16858017 19.12021812 38.16858017 19.12021812 38.17617798 20.92933655 C38.18829935 24.17738996 38.19574826 27.42540736 38.20018864 30.67347932 C38.20311881 32.70274462 38.20722354 34.73200426 38.21169281 36.76126671 C38.22537023 43.1103026 38.2350353 49.45932557 38.2388947 55.80837518 C38.24337418 63.13734202 38.26091574 70.46612223 38.2898953 77.79503232 C38.31151628 83.45965132 38.32159922 89.12421784 38.32293582 94.78887767 C38.3239837 98.17218393 38.32988731 101.55531483 38.34775543 104.93857765 C38.36477405 108.71416045 38.36294556 112.48928718 38.35644531 116.26489258 C38.3656601 117.38456421 38.37487488 118.50423584 38.3843689 119.65783691 C38.37879974 120.68834671 38.37323059 121.71885651 38.36749268 122.78059387 C38.36969252 124.1192889 38.36969252 124.1192889 38.3719368 125.48502827 C37.91439128 128.57887124 36.81115572 130.47179523 35 133 C31.98786971 134.50606515 28.88717378 134.12160331 25.5859375 134.09765625 C24.85629791 134.0962413 24.12665833 134.09482635 23.37490845 134.09336853 C21.04156415 134.08776531 18.70831536 134.07521235 16.375 134.0625 C14.79427222 134.05748541 13.21354293 134.05292243 11.6328125 134.04882812 C7.75517146 134.03779484 3.87760193 134.02052811 0 134 C0.81041748 133.28432861 1.62083496 132.56865723 2.45581055 131.83129883 C5.23313293 128.74055824 5.63623793 127.73443807 5.70703125 123.69921875 C5.75053711 122.23452148 5.75053711 122.23452148 5.79492188 120.74023438 C5.80362305 119.22913086 5.80362305 119.22913086 5.8125 117.6875 C5.83763672 116.66076172 5.86277344 115.63402344 5.88867188 114.57617188 C5.94741085 112.050396 5.98378712 109.52634772 6 107 C4.515 107.495 4.515 107.495 3 108 C0.57828391 108.11094806 -1.8154633 108.16758971 -4.23779297 108.17700195 C-4.97147095 108.18357315 -5.70514893 108.19014435 -6.46105957 108.19691467 C-8.88810328 108.21661969 -11.31508524 108.22830286 -13.7421875 108.23828125 C-14.98641165 108.24439454 -14.98641165 108.24439454 -16.25577164 108.25063133 C-20.64463298 108.27147832 -25.03346316 108.28578699 -29.42236328 108.29516602 C-33.95422028 108.30623865 -38.48558738 108.34065197 -43.01727104 108.38033772 C-46.50372226 108.40648205 -49.99005621 108.4148558 -53.47659683 108.41844749 C-55.14715007 108.42331769 -56.81769792 108.43494408 -58.48815536 108.45348549 C-60.82697189 108.4778356 -63.16451348 108.47692032 -65.50341797 108.4699707 C-66.19138458 108.48278076 -66.8793512 108.49559082 -67.58816528 108.50878906 C-72.30257368 108.4577995 -74.70152017 107.34512269 -78 104 C-78.85917455 101.05506618 -78.3985621 99.13867651 -78 96 C-76.95475769 94.27519226 -76.95475769 94.27519226 -75 93 C-72.32882729 92.71952633 -69.89366867 92.62085567 -67.22387695 92.65942383 C-66.43339966 92.65898575 -65.64292236 92.65854767 -64.82849121 92.65809631 C-62.21483692 92.66018689 -59.60182353 92.68353024 -56.98828125 92.70703125 C-55.1765325 92.71262626 -53.36477921 92.7168968 -51.55302429 92.71989441 C-46.7837166 92.73135071 -42.01468284 92.76082463 -37.2454834 92.79400635 C-32.37918809 92.82469032 -27.51284853 92.83839617 -22.64648438 92.85351562 C-13.09751651 92.88569365 -3.54882389 92.93846797 6 93 C6 86.73 6 80.46 6 74 C4.515 74.495 4.515 74.495 3 75 C0.57828391 75.11094806 -1.8154633 75.16758971 -4.23779297 75.17700195 C-4.97147095 75.18357315 -5.70514893 75.19014435 -6.46105957 75.19691467 C-8.88810328 75.21661969 -11.31508524 75.22830286 -13.7421875 75.23828125 C-14.98641165 75.24439454 -14.98641165 75.24439454 -16.25577164 75.25063133 C-20.64463298 75.27147832 -25.03346316 75.28578699 -29.42236328 75.29516602 C-33.95422028 75.30623865 -38.48558738 75.34065197 -43.01727104 75.38033772 C-46.50372226 75.40648205 -49.99005621 75.4148558 -53.47659683 75.41844749 C-55.14715007 75.42331769 -56.81769792 75.43494408 -58.48815536 75.45348549 C-60.82697189 75.4778356 -63.16451348 75.47692032 -65.50341797 75.4699707 C-66.19138458 75.48278076 -66.8793512 75.49559082 -67.58816528 75.50878906 C-72.30257368 75.4577995 -74.70152017 74.34512269 -78 71 C-78.85917455 68.05506618 -78.3985621 66.13867651 -78 63 C-76.95475769 61.27519226 -76.95475769 61.27519226 -75 60 C-72.32882729 59.71952633 -69.89366867 59.62085567 -67.22387695 59.65942383 C-66.43339966 59.65898575 -65.64292236 59.65854767 -64.82849121 59.65809631 C-62.21483692 59.66018689 -59.60182353 59.68353024 -56.98828125 59.70703125 C-55.1765325 59.71262626 -53.36477921 59.7168968 -51.55302429 59.71989441 C-46.7837166 59.73135071 -42.01468284 59.76082463 -37.2454834 59.79400635 C-32.37918809 59.82469032 -27.51284853 59.83839617 -22.64648438 59.85351562 C-13.09753587 59.88569359 -3.54879071 59.93689943 6 60 C5.90782202 52.2218657 5.80052833 44.44404628 5.68261719 36.66625977 C5.64428421 34.01917275 5.60943906 31.37203287 5.578125 28.72485352 C5.53256855 24.92444944 5.47455803 21.12441068 5.4140625 17.32421875 C5.40251129 16.13664474 5.39096008 14.94907074 5.37905884 13.72550964 C5.35918915 12.62459488 5.33931946 11.52368011 5.31884766 10.3894043 C5.30552399 9.41899704 5.29220032 8.44858978 5.2784729 7.44877625 C5.15994947 4.74469598 5.15994947 4.74469598 3 2 C2.01 1.34 1.02 0.68 0 0 Z " fill="#DDEAFA" transform="translate(107,378)"/>
<path d="M0 0 C4.62640153 -0.09901748 9.25218387 -0.17153649 13.87939453 -0.21972656 C15.45274604 -0.2398188 17.02602308 -0.26709799 18.59912109 -0.30175781 C20.86314272 -0.35038494 23.12617573 -0.37299135 25.390625 -0.390625 C26.09181458 -0.41127014 26.79300415 -0.43191528 27.51544189 -0.45318604 C30.74638445 -0.45466419 32.60080781 -0.31063591 35.18596649 1.70103455 C37.3683028 4.46675842 37.50222323 5.75233375 37.50793457 9.23754883 C37.51921387 10.29745026 37.53049316 11.35735168 37.54211426 12.44937134 C37.53401733 13.60689911 37.52592041 14.76442688 37.51757812 15.95703125 C37.5245874 17.18014008 37.53159668 18.4032489 37.53881836 19.66342163 C37.55340783 23.0149338 37.54998811 26.3654583 37.53730202 29.71691513 C37.52717041 33.22510856 37.53656813 36.73325998 37.54284668 40.24145508 C37.55012266 46.13272677 37.54053685 52.02379784 37.52148438 57.91503906 C37.49971549 64.72483682 37.50676691 71.53415554 37.52879 78.34394169 C37.54694558 84.19206116 37.54950163 90.04003646 37.53903532 95.88817501 C37.53280116 99.38041472 37.53196234 102.87242932 37.54518127 106.36465454 C37.55888794 110.25761517 37.53988736 114.15003981 37.51757812 118.04296875 C37.52567505 119.20049652 37.53377197 120.35802429 37.54211426 121.55062866 C37.52519531 123.1404808 37.52519531 123.1404808 37.50793457 124.76245117 C37.50642647 125.68273605 37.50491837 126.60302094 37.50336456 127.55119324 C36.83726891 130.79166678 35.58244691 131.99043973 33 134 C30.31827524 134.34959406 28.06062042 134.46923774 25.390625 134.390625 C24.30041046 134.38213531 24.30041046 134.38213531 23.18817139 134.37347412 C20.87476755 134.35114553 18.5629328 134.30096048 16.25 134.25 C14.67840784 134.22993023 13.10679132 134.21168029 11.53515625 134.1953125 C7.68950283 134.15129293 3.84501711 134.08229375 0 134 C0.8149292 133.28432861 1.6298584 132.56865723 2.46948242 131.83129883 C5.27026555 128.69761027 5.60746133 127.7751774 5.48828125 123.69921875 C5.47216797 122.72275391 5.45605469 121.74628906 5.43945312 120.74023438 C5.39755859 119.73283203 5.35566406 118.72542969 5.3125 117.6875 C5.28994141 116.66076172 5.26738281 115.63402344 5.24414062 114.57617188 C5.18537575 112.0492821 5.10327849 109.52539745 5 107 C4.01 107.495 4.01 107.495 3 108 C0.61605111 108.11346536 -1.73939462 108.16778315 -4.12426758 108.17700195 C-4.85779953 108.18357315 -5.59133148 108.19014435 -6.34709167 108.19691467 C-8.77957253 108.21665817 -11.21199162 108.22831267 -13.64453125 108.23828125 C-14.89013101 108.24439454 -14.89013101 108.24439454 -16.16089439 108.25063133 C-20.55623502 108.27149675 -24.95154438 108.2857963 -29.34692383 108.29516602 C-33.88665666 108.30623036 -38.42589932 108.34062887 -42.96545887 108.38033772 C-46.45620128 108.40648505 -49.94682658 108.41485617 -53.43765831 108.41844749 C-55.11100258 108.42331851 -56.78434144 108.4349472 -58.4575901 108.45348549 C-60.80130448 108.47783744 -63.14374663 108.47691973 -65.48754883 108.4699707 C-66.17708649 108.48278076 -66.86662415 108.49559082 -67.57705688 108.50878906 C-71.06386936 108.47116149 -72.93345778 108.04230696 -75.90312195 106.15422058 C-78 104 -78 104 -79.0625 101.0625 C-79 98 -79 98 -77.48345947 95.34407043 C-74.18055956 92.22655226 -71.51552333 92.3266879 -67.20214844 92.43237305 C-66.42127869 92.43164291 -65.64040894 92.43091278 -64.83587646 92.43016052 C-62.25966466 92.43363881 -59.68527014 92.47250865 -57.109375 92.51171875 C-55.32148222 92.52104608 -53.53357664 92.52816257 -51.7456665 92.53315735 C-47.0435447 92.55223356 -42.3421971 92.60133947 -37.64038086 92.65667725 C-32.84108962 92.70785644 -28.04167307 92.73066853 -23.2421875 92.75585938 C-13.82773039 92.80945812 -4.41405074 92.89739884 5 93 C5 86.73 5 80.46 5 74 C4.01 74.495 4.01 74.495 3 75 C0.61605111 75.11346536 -1.73939462 75.16778315 -4.12426758 75.17700195 C-4.85779953 75.18357315 -5.59133148 75.19014435 -6.34709167 75.19691467 C-8.77957253 75.21665817 -11.21199162 75.22831267 -13.64453125 75.23828125 C-14.89013101 75.24439454 -14.89013101 75.24439454 -16.16089439 75.25063133 C-20.55623502 75.27149675 -24.95154438 75.2857963 -29.34692383 75.29516602 C-33.88665666 75.30623036 -38.42589932 75.34062887 -42.96545887 75.38033772 C-46.45620128 75.40648505 -49.94682658 75.41485617 -53.43765831 75.41844749 C-55.11100258 75.42331851 -56.78434144 75.4349472 -58.4575901 75.45348549 C-60.80130448 75.47783744 -63.14374663 75.47691973 -65.48754883 75.4699707 C-66.17708649 75.48278076 -66.86662415 75.49559082 -67.57705688 75.50878906 C-71.06386936 75.47116149 -72.93345778 75.04230696 -75.90312195 73.15422058 C-78 71 -78 71 -79.0625 68.0625 C-79 65 -79 65 -77.48345947 62.34407043 C-74.18055956 59.22655226 -71.51552333 59.3266879 -67.20214844 59.43237305 C-66.42127869 59.43164291 -65.64040894 59.43091278 -64.83587646 59.43016052 C-62.25966466 59.43363881 -59.68527014 59.47250865 -57.109375 59.51171875 C-55.32148222 59.52104608 -53.53357664 59.52816257 -51.7456665 59.53315735 C-47.0435447 59.55223356 -42.3421971 59.60133947 -37.64038086 59.65667725 C-32.84108962 59.70785644 -28.04167307 59.73066853 -23.2421875 59.75585938 C-13.82778514 59.8094578 -4.41395699 59.894778 5 60 C5.07593214 52.22215005 5.12855012 44.44439532 5.16479492 36.66625977 C5.1799012 34.01908801 5.2003873 31.37194136 5.22631836 28.72485352 C5.26261991 24.92457899 5.27970803 21.12463474 5.29296875 17.32421875 C5.30845261 16.13664474 5.32393646 14.94907074 5.33988953 13.72550964 C5.34011612 12.62459488 5.34034271 11.52368011 5.34057617 10.3894043 C5.34723801 9.41899704 5.35389984 8.44858978 5.36076355 7.44877625 C4.93467311 4.5565768 4.23825187 3.79784646 2 2 C1.01 1.01 1.01 1.01 0 0 Z " fill="#FECF64" transform="translate(475,378)"/>
<path d="M0 0 C4.62640153 -0.09901748 9.25218387 -0.17153649 13.87939453 -0.21972656 C15.45274604 -0.2398188 17.02602308 -0.26709799 18.59912109 -0.30175781 C20.86314272 -0.35038494 23.12617573 -0.37299135 25.390625 -0.390625 C26.09181458 -0.41127014 26.79300415 -0.43191528 27.51544189 -0.45318604 C30.90344099 -0.45473604 32.68311366 -0.24122348 35.41308594 1.83691406 C37.86325181 5.17667862 38.12676569 7.85611286 38.14044189 11.87605286 C38.14615204 12.88120438 38.15186218 13.8863559 38.15774536 14.92196655 C38.15886322 16.02384308 38.15998108 17.1257196 38.16113281 18.26098633 C38.16858017 20.00282951 38.16858017 20.00282951 38.17617798 21.77986145 C38.19081169 25.63059069 38.1976036 29.48127874 38.203125 33.33203125 C38.2074225 35.32875359 38.21172052 37.32547593 38.2160995 39.32219809 C38.22791031 44.88665067 38.23544774 50.45109327 38.2388947 56.01555711 C38.24337388 63.20640423 38.26091626 70.39706111 38.2898953 77.58785039 C38.31152992 83.14974601 38.32159994 88.71158818 38.32293582 94.27352542 C38.32398265 97.59370336 38.33131463 100.9136619 38.34775543 104.2338047 C38.36479624 107.93962669 38.36294014 111.64498488 38.35644531 115.35083008 C38.37026749 116.99453583 38.37026749 116.99453583 38.3843689 118.67144775 C38.35418309 124.16540173 38.22109157 128.30835544 35 133 C31.98786971 134.50606515 28.88717378 134.12160331 25.5859375 134.09765625 C24.85629791 134.0962413 24.12665833 134.09482635 23.37490845 134.09336853 C21.04156415 134.08776531 18.70831536 134.07521235 16.375 134.0625 C14.79427222 134.05748541 13.21354293 134.05292243 11.6328125 134.04882812 C7.75517146 134.03779484 3.87760193 134.02052811 0 134 C0.81114258 133.29262695 1.62228516 132.58525391 2.45800781 131.85644531 C5.32442526 128.63544223 5.63146201 127.50400622 5.671875 123.296875 C5.69636719 122.2346875 5.72085937 121.1725 5.74609375 120.078125 C5.74738281 118.97984375 5.74867188 117.8815625 5.75 116.75 C5.78299297 114.55723679 5.81926565 112.36451959 5.859375 110.171875 C5.86420898 109.2034668 5.86904297 108.23505859 5.87402344 107.23730469 C6 105 6 105 7 104 C7.16053815 102.12678052 7.16053815 102.12678052 7.125 100 C7.12886719 98.9171875 7.12886719 98.9171875 7.1328125 97.8125 C7.19695276 95.97910585 7.19695276 95.97910585 6 95 C5.90067847 93.30441274 5.86919993 91.60474253 5.8671875 89.90625 C5.86589844 88.87628906 5.86460937 87.84632813 5.86328125 86.78515625 C5.86714844 85.70105469 5.87101562 84.61695313 5.875 83.5 C5.87113281 82.41589844 5.86726563 81.33179688 5.86328125 80.21484375 C5.86457031 79.18488281 5.86585938 78.15492188 5.8671875 77.09375 C5.86831543 76.14177734 5.86944336 75.18980469 5.87060547 74.20898438 C6 72 6 72 7 71 C7.16053815 69.12678052 7.16053815 69.12678052 7.125 67 C7.12886719 65.9171875 7.12886719 65.9171875 7.1328125 64.8125 C7.19695276 62.97910585 7.19695276 62.97910585 6 62 C5.88724478 60.23654024 5.84320099 58.46864129 5.82641602 56.70166016 C5.81292618 55.5702359 5.79943634 54.43881165 5.78553772 53.27310181 C5.77509933 52.04086884 5.76466095 50.80863586 5.75390625 49.5390625 C5.72097001 46.95832991 5.68775833 44.37760083 5.65429688 41.796875 C5.60576483 37.7060982 5.56199492 33.6152944 5.52319336 29.52441406 C5.48531701 25.59164902 5.43200853 21.65915183 5.37890625 17.7265625 C5.3704921 16.49837799 5.36207794 15.27019348 5.35340881 14.00479126 C5.33676682 12.86706268 5.32012482 11.72933411 5.30297852 10.55712891 C5.29267105 9.55420807 5.28236359 8.55128723 5.27174377 7.51797485 C5.16966019 4.75375188 5.16966019 4.75375188 3 2 C2.01 1.34 1.02 0.68 0 0 Z " fill="#5490F8" transform="translate(291,378)"/>
<path d="M0 0 C8.12783899 -0.11306543 16.25506434 -0.20475139 24.38347912 -0.25906086 C28.1580501 -0.28512982 31.93205414 -0.32047629 35.70629883 -0.37719727 C39.35030481 -0.43161681 42.99376631 -0.46144086 46.63814735 -0.47438622 C48.02685427 -0.48360857 49.41553215 -0.50161853 50.80400658 -0.52865028 C52.75209744 -0.56506071 54.70073891 -0.56704339 56.64916992 -0.56762695 C58.31129768 -0.58428154 58.31129768 -0.58428154 60.00700378 -0.60127258 C64.0571627 0.2123768 65.39797884 1.83850802 68 5 C68.61523914 7.95784473 68.61523914 7.95784473 68.60127258 11.29585266 C68.6081459 12.56484909 68.61501923 13.83384552 68.62210083 15.14129639 C68.60440735 16.53992295 68.58623333 17.93854349 68.56762695 19.3371582 C68.56621599 20.81570894 68.5670094 22.29426319 68.56983948 23.77281189 C68.5712732 27.78096018 68.5418913 31.78835927 68.50696969 35.79633355 C68.4756985 39.98700165 68.47277486 44.17768721 68.46684265 48.36845398 C68.4513064 56.30162967 68.41028105 64.23446056 68.3600952 72.16748446 C68.30419482 81.20002792 68.27671352 90.2325879 68.25161803 99.26526129 C68.19936486 117.84370838 68.11041901 136.42181383 68 155 C62.72 155 57.44 155 52 155 C52 109.13 52 63.26 52 16 C32.2 16 12.4 16 -8 16 C-5.36 10.72 -2.72 5.44 0 0 Z " fill="#665E66" transform="translate(380,223)"/>
<path d="M0 0 C1.26092972 0.00037766 2.52185944 0.00075531 3.82099915 0.00114441 C5.18690998 0.02667371 6.55281062 0.05275362 7.91870117 0.0793457 C9.32401774 0.08867836 10.72935064 0.09579234 12.13468933 0.1007843 C15.82255451 0.11981923 19.50942543 0.16888725 23.19689941 0.2243042 C26.9640559 0.27557391 30.73137403 0.29831466 34.4987793 0.32348633 C41.88274729 0.37701196 49.26569228 0.46491625 56.64916992 0.56762695 C59.28916992 5.84762695 61.92916992 11.12762695 64.64916992 16.56762695 C44.84916992 16.56762695 25.04916992 16.56762695 4.64916992 16.56762695 C4.64916992 62.43762695 4.64916992 108.30762695 4.64916992 155.56762695 C-0.63083008 155.56762695 -5.91083008 155.56762695 -11.35083008 155.56762695 C-11.46655645 136.09646777 -11.55579343 116.62540566 -11.60989094 97.15397358 C-11.63567661 88.11310942 -11.67083397 79.07246281 -11.72802734 70.03173828 C-11.77785133 62.15216162 -11.81011846 54.27274251 -11.82127255 46.3930127 C-11.82779308 42.2203653 -11.84312521 38.04816865 -11.87948036 33.87566566 C-11.9134243 29.94806989 -11.92388651 26.0211104 -11.91636848 22.09338188 C-11.91774378 20.65220812 -11.92768658 19.21101303 -11.94685745 17.76996613 C-11.97176236 15.80129404 -11.96276636 13.83228035 -11.95210266 11.86347961 C-11.95671163 10.761937 -11.96132059 9.66039438 -11.96606922 8.52547169 C-10.60444549 1.97928291 -6.22350834 -0.0623598 0 0 Z " fill="#665E66" transform="translate(75.350830078125,222.432373046875)"/>
<path d="M0 0 C7.77725152 2.6413307 12.22020269 12.85378511 16.515625 19.42578125 C18.04547707 21.72388512 19.62938854 23.93799407 21.3125 26.125 C21.3218457 25.54532471 21.33119141 24.96564941 21.34082031 24.3684082 C21.3947407 21.72393054 21.47834129 19.08118107 21.5625 16.4375 C21.58376953 15.06948242 21.58376953 15.06948242 21.60546875 13.67382812 C21.76111383 9.3935885 21.92248834 6.76929598 24.17578125 3.046875 C26.95965164 0.54291845 28.57339715 0.04869178 32.3125 0.125 C34.96459961 1.37280273 34.96459961 1.37280273 37.3125 4.125 C38.07738271 8.1491018 37.98845805 12.1374416 37.94140625 16.22265625 C37.94381821 17.40846786 37.94623016 18.59427948 37.94871521 19.81602478 C37.94773598 22.32180121 37.93432453 24.82759906 37.90942383 27.33325195 C37.87509657 31.17668807 37.8887679 35.01782881 37.90820312 38.86132812 C37.90130563 41.29428066 37.89163414 43.72722724 37.87890625 46.16015625 C37.88386612 47.31330826 37.88882599 48.46646027 37.89393616 49.65455627 C37.87018166 51.25653114 37.87018166 51.25653114 37.84594727 52.89086914 C37.83974869 53.83144669 37.83355011 54.77202423 37.8271637 55.74110413 C37.3125 58.125 37.3125 58.125 35.4861908 59.90525818 C32.03848949 61.83989648 30.20286971 61.91626164 26.3125 61.125 C23.38610126 58.57341095 21.4382936 55.3491203 19.3125 52.125 C18.27700299 50.58919515 17.24045605 49.05409793 16.203125 47.51953125 C13.2105699 43.0736255 10.25256543 38.60575537 7.3125 34.125 C7.3031543 34.80079102 7.29380859 35.47658203 7.28417969 36.17285156 C7.23042699 39.2409711 7.14679008 42.30757387 7.0625 45.375 C7.04123047 46.97021484 7.04123047 46.97021484 7.01953125 48.59765625 C6.98730469 49.62246094 6.95507812 50.64726562 6.921875 51.703125 C6.90092773 52.64575195 6.87998047 53.58837891 6.85839844 54.55957031 C6.1555255 57.8626959 4.95223932 59.07160672 2.3125 61.125 C-1.1875 61.6875 -1.1875 61.6875 -4.6875 61.125 C-7.2880074 58.94512874 -8.5248593 57.15484394 -9.05883789 53.77368164 C-9.21831255 50.8001048 -9.24166496 47.85280427 -9.21875 44.875 C-9.2225769 43.78413086 -9.22640381 42.69326172 -9.23034668 41.56933594 C-9.23306489 39.26626664 -9.22571015 36.96316642 -9.20898438 34.66015625 C-9.18757487 31.13731988 -9.20879061 27.61652302 -9.234375 24.09375 C-9.23173171 21.85416217 -9.22660671 19.61457561 -9.21875 17.375 C-9.22684692 16.32280273 -9.23494385 15.27060547 -9.24328613 14.18652344 C-9.14978743 6.88585792 -9.14978743 6.88585792 -6.77929688 2.984375 C-4.28302477 0.76546646 -3.34440762 0.15555384 0 0 Z " fill="#696169" transform="translate(190.6875,135.875)"/>
<path d="M0 0 C1.32149048 -0.00761353 1.32149048 -0.00761353 2.66967773 -0.01538086 C3.58950439 0.01160889 4.50933105 0.03859863 5.45703125 0.06640625 C6.3994165 0.08372803 7.34180176 0.1010498 8.31274414 0.11889648 C15.86216047 0.37610677 22.34575155 1.05353828 28.1171875 6.3125 C33.65702435 12.40239157 34.72918123 17.15967013 34.58203125 25.36328125 C33.98999054 31.55010662 31.79381823 35.10461927 27.45703125 39.44140625 C19.84320083 44.66658399 14.3929144 45.03339122 5.26953125 44.62890625 C5.3159375 45.43714844 5.36234375 46.24539062 5.41015625 47.078125 C5.7023341 55.72867632 5.7023341 55.72867632 3.70703125 59.87890625 C0.32868683 62.30438429 -1.66278175 62.28264166 -5.73046875 61.62890625 C-8.28809062 59.62369199 -9.5620632 58.42125465 -10.24513245 55.20741272 C-10.25133102 54.30760178 -10.2575296 53.40779083 -10.26391602 52.48071289 C-10.27975235 51.45607437 -10.29558868 50.43143585 -10.31190491 49.37574768 C-10.30694504 48.27464157 -10.30198517 47.17353546 -10.296875 46.0390625 C-10.30307358 44.90238632 -10.30927216 43.76571014 -10.31565857 42.59458923 C-10.32276062 40.19140479 -10.31957611 37.78817119 -10.30688477 35.38500977 C-10.29303212 31.70822511 -10.3270727 28.03399103 -10.36523438 24.35742188 C-10.36618568 22.02213479 -10.36432616 19.68684453 -10.359375 17.3515625 C-10.37263321 16.25248062 -10.38589142 15.15339874 -10.39955139 14.02101135 C-10.3072263 6.4497973 -10.3072263 6.4497973 -7.48681641 2.43554688 C-4.65206223 0.57751491 -3.33659747 -0.00306266 0 0 Z " fill="#696169" transform="translate(294.73046875,135.37109375)"/>
<path d="M0 0 C0.77605087 -0.00554901 1.55210175 -0.01109802 2.35166931 -0.01681519 C4.91338102 -0.02861331 7.47332453 -0.00433879 10.03491211 0.02148438 C11.81562723 0.02319534 13.59634487 0.02312994 15.37705994 0.0213623 C19.10708749 0.02301557 22.83651404 0.04171606 26.56640625 0.07324219 C31.35065378 0.11294887 36.13411508 0.11728426 40.91849613 0.10977936 C44.5945101 0.10671213 48.27034683 0.11882083 51.94631767 0.13591003 C53.71058478 0.14294711 55.47487197 0.14606371 57.23915291 0.1452179 C59.70277452 0.14701282 62.16544825 0.16836635 64.62890625 0.1953125 C65.72538986 0.1909166 65.72538986 0.1909166 66.84402466 0.18643188 C69.71093575 0.2348906 71.76315131 0.29497192 74.19480896 1.89538574 C75.6886669 4.33077803 75.7138274 6.77578147 75.84350586 9.58007812 C74.90137206 12.8093657 73.02609618 13.80965294 70.24975586 15.61523438 C67.61877424 16.00226381 65.40915716 16.16383988 62.78491211 16.1328125 C62.05094208 16.13982178 61.31697205 16.14683105 60.5607605 16.15405273 C58.14420288 16.17160084 55.72882455 16.16002228 53.31225586 16.14648438 C51.62743913 16.14918023 49.94262392 16.15306343 48.2578125 16.15808105 C44.73056188 16.16397175 41.20371704 16.15542723 37.67651367 16.13671875 C33.16030069 16.11392912 28.64503858 16.12705455 24.12886047 16.15100861 C20.65092839 16.16547836 17.17322091 16.16085527 13.69528198 16.15049744 C12.03034349 16.14783339 10.36538446 16.1510886 8.70046997 16.16041565 C6.37129888 16.1706011 4.04365709 16.15505457 1.71459961 16.1328125 C0.68736282 16.14495789 0.68736282 16.14495789 -0.36062622 16.15734863 C-5.06111554 16.07439403 -7.47657154 14.96902651 -10.75024414 11.61523438 C-11.81274414 8.67773438 -11.81274414 8.67773438 -11.75024414 5.61523438 C-8.72918127 0.34069881 -5.70272594 -0.10375898 0 0 Z " fill="#6B6266" transform="translate(407.750244140625,470.384765625)"/>
<path d="M0 0 C0.77429855 -0.00846954 1.54859711 -0.01693909 2.34635925 -0.02566528 C4.90823755 -0.04908183 7.46951688 -0.05005636 10.03149414 -0.04882812 C11.81124615 -0.05592697 13.59099586 -0.06362556 15.3707428 -0.07189941 C19.1023698 -0.08535495 22.8337852 -0.08690824 26.56542969 -0.08105469 C31.34867252 -0.07515786 36.1309006 -0.10574387 40.91394711 -0.14617157 C44.58998591 -0.17201543 48.26577931 -0.17492902 51.94189644 -0.17127991 C53.70537428 -0.17297431 55.46886307 -0.18264761 57.23225212 -0.20042419 C59.69849508 -0.22254944 62.16267066 -0.21294687 64.62890625 -0.1953125 C65.35787109 -0.20857574 66.08683594 -0.22183899 66.83789062 -0.23550415 C70.58198674 -0.17326611 72.09861754 0.15448034 74.8596344 2.76696777 C76.37915039 5.41992188 76.37915039 5.41992188 76.44165039 8.48242188 C75.08746132 12.22635637 73.72409081 13.28762443 70.37915039 15.41992188 C67.74816877 15.80695131 65.53855169 15.96852738 62.91430664 15.9375 C62.18033661 15.94450928 61.44636658 15.95151855 60.69015503 15.95874023 C58.27359742 15.97628834 55.85821908 15.96470978 53.44165039 15.95117188 C51.75683366 15.95386773 50.07201845 15.95775093 48.38720703 15.96276855 C44.85995641 15.96865925 41.33311158 15.96011473 37.8059082 15.94140625 C33.28969522 15.91861662 28.77443312 15.93174205 24.258255 15.95569611 C20.78032292 15.97016586 17.30261544 15.96554277 13.82467651 15.95518494 C12.15973803 15.95252089 10.494779 15.9557761 8.8298645 15.96510315 C6.50069341 15.9752886 4.17305162 15.95974207 1.84399414 15.9375 C0.81675735 15.94964539 0.81675735 15.94964539 -0.23123169 15.96203613 C-4.92703513 15.87916423 -7.33166375 14.74769681 -10.62084961 11.41992188 C-11.48002416 8.47498805 -11.01941171 6.55859838 -10.62084961 3.41992188 C-8.16098755 -0.59031827 -4.23293068 -0.01697021 0 0 Z " fill="#6A626B" transform="translate(39.620849609375,470.580078125)"/>
<path d="M0 0 C0.77605087 -0.00554901 1.55210175 -0.01109802 2.35166931 -0.01681519 C4.91338102 -0.02861331 7.47332453 -0.00433879 10.03491211 0.02148438 C11.81562723 0.02319534 13.59634487 0.02312994 15.37705994 0.0213623 C19.10708749 0.02301557 22.83651404 0.04171606 26.56640625 0.07324219 C31.35065378 0.11294887 36.13411508 0.11728426 40.91849613 0.10977936 C44.5945101 0.10671213 48.27034683 0.11882083 51.94631767 0.13591003 C53.71058478 0.14294711 55.47487197 0.14606371 57.23915291 0.1452179 C59.70277452 0.14701282 62.16544825 0.16836635 64.62890625 0.1953125 C65.72538986 0.1909166 65.72538986 0.1909166 66.84402466 0.18643188 C69.71093575 0.2348906 71.76315131 0.29497192 74.19480896 1.89538574 C75.6886669 4.33077803 75.7138274 6.77578147 75.84350586 9.58007812 C74.90137206 12.8093657 73.02609618 13.80965294 70.24975586 15.61523438 C67.61877424 16.00226381 65.40915716 16.16383988 62.78491211 16.1328125 C62.05094208 16.13982178 61.31697205 16.14683105 60.5607605 16.15405273 C58.14420288 16.17160084 55.72882455 16.16002228 53.31225586 16.14648438 C51.62743913 16.14918023 49.94262392 16.15306343 48.2578125 16.15808105 C44.73056188 16.16397175 41.20371704 16.15542723 37.67651367 16.13671875 C33.16030069 16.11392912 28.64503858 16.12705455 24.12886047 16.15100861 C20.65092839 16.16547836 17.17322091 16.16085527 13.69528198 16.15049744 C12.03034349 16.14783339 10.36538446 16.1510886 8.70046997 16.16041565 C6.37129888 16.1706011 4.04365709 16.15505457 1.71459961 16.1328125 C0.68736282 16.14495789 0.68736282 16.14495789 -0.36062622 16.15734863 C-5.06111554 16.07439403 -7.47657154 14.96902651 -10.75024414 11.61523438 C-11.81274414 8.67773438 -11.81274414 8.67773438 -11.75024414 5.61523438 C-8.72918127 0.34069881 -5.70272594 -0.10375898 0 0 Z " fill="#6B6266" transform="translate(407.750244140625,437.384765625)"/>
<path d="M0 0 C0.77429855 -0.00846954 1.54859711 -0.01693909 2.34635925 -0.02566528 C4.90823755 -0.04908183 7.46951688 -0.05005636 10.03149414 -0.04882812 C11.81124615 -0.05592697 13.59099586 -0.06362556 15.3707428 -0.07189941 C19.1023698 -0.08535495 22.8337852 -0.08690824 26.56542969 -0.08105469 C31.34867252 -0.07515786 36.1309006 -0.10574387 40.91394711 -0.14617157 C44.58998591 -0.17201543 48.26577931 -0.17492902 51.94189644 -0.17127991 C53.70537428 -0.17297431 55.46886307 -0.18264761 57.23225212 -0.20042419 C59.69849508 -0.22254944 62.16267066 -0.21294687 64.62890625 -0.1953125 C65.35787109 -0.20857574 66.08683594 -0.22183899 66.83789062 -0.23550415 C70.58198674 -0.17326611 72.09861754 0.15448034 74.8596344 2.76696777 C76.37915039 5.41992188 76.37915039 5.41992188 76.44165039 8.48242188 C75.08746132 12.22635637 73.72409081 13.28762443 70.37915039 15.41992188 C67.74816877 15.80695131 65.53855169 15.96852738 62.91430664 15.9375 C62.18033661 15.94450928 61.44636658 15.95151855 60.69015503 15.95874023 C58.27359742 15.97628834 55.85821908 15.96470978 53.44165039 15.95117188 C51.75683366 15.95386773 50.07201845 15.95775093 48.38720703 15.96276855 C44.85995641 15.96865925 41.33311158 15.96011473 37.8059082 15.94140625 C33.28969522 15.91861662 28.77443312 15.93174205 24.258255 15.95569611 C20.78032292 15.97016586 17.30261544 15.96554277 13.82467651 15.95518494 C12.15973803 15.95252089 10.494779 15.9557761 8.8298645 15.96510315 C6.50069341 15.9752886 4.17305162 15.95974207 1.84399414 15.9375 C0.81675735 15.94964539 0.81675735 15.94964539 -0.23123169 15.96203613 C-4.92703513 15.87916423 -7.33166375 14.74769681 -10.62084961 11.41992188 C-11.48002416 8.47498805 -11.01941171 6.55859838 -10.62084961 3.41992188 C-8.16098755 -0.59031827 -4.23293068 -0.01697021 0 0 Z " fill="#6A626B" transform="translate(39.620849609375,437.580078125)"/>
<path d="M0 0 C0.77590485 -0.00525696 1.55180969 -0.01051392 2.35122681 -0.01593018 C4.91794927 -0.02914225 7.48405239 -0.02038807 10.05078125 -0.01025391 C11.83292765 -0.0122743 13.61507324 -0.01518545 15.3972168 -0.01895142 C19.1330553 -0.0233764 22.86867868 -0.01693817 26.60449219 -0.00292969 C31.39657209 0.01416236 36.18814795 0.0043221 40.98020935 -0.01364708 C44.66047981 -0.02448025 48.3406305 -0.02104074 52.02090454 -0.0132637 C53.78797464 -0.0112604 55.55505557 -0.01372553 57.32211304 -0.02070236 C59.79055649 -0.02830926 62.2581802 -0.01672393 64.7265625 0 C65.45912262 -0.00607269 66.19168274 -0.01214539 66.94644165 -0.0184021 C69.81854318 0.01770388 71.87123731 0.06500776 74.30932617 1.66635132 C75.80087951 4.10308201 75.82734342 6.54852797 75.95703125 9.35302734 C75.01489745 12.58231492 73.13962157 13.58260216 70.36328125 15.38818359 C67.73229963 15.77521303 65.52268255 15.9367891 62.8984375 15.90576172 C62.16446747 15.912771 61.43049744 15.91978027 60.67428589 15.92700195 C58.25772828 15.94455006 55.84234994 15.9329715 53.42578125 15.91943359 C51.74096452 15.92212945 50.05614931 15.92601265 48.37133789 15.93103027 C44.84408727 15.93692097 41.31724243 15.92837645 37.79003906 15.90966797 C33.27382608 15.88687834 28.75856397 15.90000376 24.24238586 15.92395782 C20.76445378 15.93842758 17.2867463 15.93380449 13.80880737 15.92344666 C12.14386888 15.92078261 10.47890986 15.92403782 8.81399536 15.93336487 C6.48482427 15.94355032 4.15718248 15.92800378 1.828125 15.90576172 C0.80088821 15.9179071 0.80088821 15.9179071 -0.24710083 15.93029785 C-4.94290427 15.84742594 -7.34753289 14.71595853 -10.63671875 11.38818359 C-11.4958933 8.44324977 -11.03528085 6.5268601 -10.63671875 3.38818359 C-8.17497111 -0.63354051 -4.23731104 -0.03512598 0 0 Z " fill="#65606A" transform="translate(223.63671875,470.61181640625)"/>
<path d="M0 0 C0.77590485 -0.00525696 1.55180969 -0.01051392 2.35122681 -0.01593018 C4.91794927 -0.02914225 7.48405239 -0.02038807 10.05078125 -0.01025391 C11.83292765 -0.0122743 13.61507324 -0.01518545 15.3972168 -0.01895142 C19.1330553 -0.0233764 22.86867868 -0.01693817 26.60449219 -0.00292969 C31.39657209 0.01416236 36.18814795 0.0043221 40.98020935 -0.01364708 C44.66047981 -0.02448025 48.3406305 -0.02104074 52.02090454 -0.0132637 C53.78797464 -0.0112604 55.55505557 -0.01372553 57.32211304 -0.02070236 C59.79055649 -0.02830926 62.2581802 -0.01672393 64.7265625 0 C65.45912262 -0.00607269 66.19168274 -0.01214539 66.94644165 -0.0184021 C69.81854318 0.01770388 71.87123731 0.06500776 74.30932617 1.66635132 C75.80087951 4.10308201 75.82734342 6.54852797 75.95703125 9.35302734 C75.01489745 12.58231492 73.13962157 13.58260216 70.36328125 15.38818359 C67.73229963 15.77521303 65.52268255 15.9367891 62.8984375 15.90576172 C62.16446747 15.912771 61.43049744 15.91978027 60.67428589 15.92700195 C58.25772828 15.94455006 55.84234994 15.9329715 53.42578125 15.91943359 C51.74096452 15.92212945 50.05614931 15.92601265 48.37133789 15.93103027 C44.84408727 15.93692097 41.31724243 15.92837645 37.79003906 15.90966797 C33.27382608 15.88687834 28.75856397 15.90000376 24.24238586 15.92395782 C20.76445378 15.93842758 17.2867463 15.93380449 13.80880737 15.92344666 C12.14386888 15.92078261 10.47890986 15.92403782 8.81399536 15.93336487 C6.48482427 15.94355032 4.15718248 15.92800378 1.828125 15.90576172 C0.80088821 15.9179071 0.80088821 15.9179071 -0.24710083 15.93029785 C-4.94290427 15.84742594 -7.34753289 14.71595853 -10.63671875 11.38818359 C-11.4958933 8.44324977 -11.03528085 6.5268601 -10.63671875 3.38818359 C-8.17497111 -0.63354051 -4.23731104 -0.03512598 0 0 Z " fill="#65606A" transform="translate(223.63671875,437.61181640625)"/>
<path d="M0 0 C2.88427536 1.02552013 3.95313265 1.64316506 5.8125 4 C6.17326355 5.99320984 6.17326355 5.99320984 6.15307617 8.2878418 C6.15284958 9.14850754 6.15262299 10.00917328 6.15238953 10.8959198 C6.13690567 11.82100845 6.12142181 12.74609711 6.10546875 13.69921875 C6.10122391 14.64940384 6.09697906 15.59958893 6.09260559 16.5785675 C6.07580484 19.61516588 6.03814992 22.65110202 6 25.6875 C5.98495497 27.74543313 5.97126625 29.80337665 5.95898438 31.86132812 C5.92589671 36.90780748 5.87410462 41.95379144 5.8125 47 C6.71613281 46.95359375 7.61976563 46.9071875 8.55078125 46.859375 C10.32001953 46.80523437 10.32001953 46.80523437 12.125 46.75 C13.29675781 46.70359375 14.46851563 46.6571875 15.67578125 46.609375 C18.8125 47 18.8125 47 20.703125 48.828125 C22.22075645 51.79926262 22.29270918 53.70713705 21.8125 57 C19.7765954 59.58148721 18.56173908 60.84025299 15.31054688 61.53344727 C12.30962451 61.56903445 9.31360075 61.5939542 6.3125 61.5625 C5.26707031 61.58634766 4.22164062 61.61019531 3.14453125 61.63476562 C2.13777344 61.63283203 1.13101563 61.63089844 0.09375 61.62890625 C-0.82341797 61.62963135 -1.74058594 61.63035645 -2.68554688 61.63110352 C-5.1875 61 -5.1875 61 -7.47998047 59.17749023 C-10.05537005 54.38499732 -9.79816448 49.89447608 -9.7890625 44.53125 C-9.79763275 43.41818481 -9.806203 42.30511963 -9.81503296 41.1583252 C-9.82650385 38.8082145 -9.82753156 36.4580328 -9.81884766 34.10791016 C-9.81252132 30.51211661 -9.85947541 26.91960609 -9.91015625 23.32421875 C-9.91470188 21.03906665 -9.91610939 18.7539057 -9.9140625 16.46875 C-9.93248199 15.39467896 -9.95090149 14.32060791 -9.96987915 13.21398926 C-9.88030389 5.99090661 -9.88030389 5.99090661 -7.91497803 3.17993164 C-5.24370443 0.80901185 -3.58590935 0 0 0 Z " fill="#686169" transform="translate(250.1875,136)"/>
<path d="M0 0 C1.07483139 -0.00004028 2.14966278 -0.00008057 3.25706482 -0.00012207 C5.5274745 0.00523614 7.79788351 0.02283152 10.06811523 0.05175781 C13.54923962 0.09363747 17.02843168 0.0928249 20.50976562 0.0859375 C22.71485724 0.09642883 24.91993885 0.10936662 27.125 0.125 C28.16878311 0.12520142 29.21256622 0.12540283 30.28797913 0.12561035 C31.25585861 0.14152222 32.2237381 0.15743408 33.22094727 0.17382812 C34.49857689 0.18645691 34.49857689 0.18645691 35.80201721 0.19934082 C38.51503197 0.6870348 39.39956527 1.36647886 40.99609375 3.59375 C41.70389352 9.16767317 41.70389352 9.16767317 40.99609375 11.59375 C38.01960092 14.87010768 35.67722239 15.86589466 31.37695312 16.11132812 C29.53143191 16.13763868 27.68548444 16.14085019 25.83984375 16.125 C24.85995483 16.1288269 23.88006592 16.13265381 22.8704834 16.13659668 C20.80280528 16.13931352 18.73509266 16.13196836 16.66748047 16.11523438 C13.50670581 16.09382189 10.34820415 16.1150442 7.1875 16.140625 C5.17577624 16.13798168 3.1640539 16.13285663 1.15234375 16.125 C0.20951538 16.13309692 -0.73331299 16.14119385 -1.70471191 16.14953613 C-5.94872492 16.08903164 -8.37466827 15.97305514 -12.07226562 13.74414062 C-14.58042508 10.95194288 -15.08040575 9.34222537 -15.00390625 5.59375 C-11.72966645 -1.00939136 -6.52759789 -0.10273173 0 0 Z " fill="#DE53AF" transform="translate(411.00390625,404.40625)"/>
<path d="M0 0 C1.45181923 -0.0238678 1.45181923 -0.0238678 2.93296814 -0.04821777 C3.97675125 -0.04841919 5.02053436 -0.04862061 6.09594727 -0.04882812 C7.16982193 -0.05644165 8.24369659 -0.06405518 9.35011292 -0.07189941 C11.62221958 -0.08270959 13.89437597 -0.08554982 16.16650391 -0.08105469 C19.64578014 -0.08008275 23.12284921 -0.12168828 26.60180664 -0.16601562 C28.80818224 -0.17122272 31.01456552 -0.17391082 33.22094727 -0.17382812 C34.26270615 -0.19022339 35.30446503 -0.20661865 36.37779236 -0.22351074 C43.56750064 -0.15461159 43.56750064 -0.15461159 46.90869141 2.765625 C48.22485352 5.41992188 48.22485352 5.41992188 48.28735352 8.48242188 C46.9019168 12.31274691 45.72262264 13.31146397 42.22485352 15.41992188 C38.83815613 16.00687781 35.4990626 15.98063234 32.06860352 15.95117188 C31.0887146 15.95499878 30.10882568 15.95882568 29.09924316 15.96276855 C27.03156504 15.96548539 24.96385242 15.95814023 22.89624023 15.94140625 C19.73546558 15.91999377 16.57696392 15.94121608 13.41625977 15.96679688 C11.40453601 15.96415356 9.39281367 15.9590285 7.38110352 15.95117188 C6.43827515 15.9592688 5.49544678 15.96736572 4.52404785 15.97570801 C0.23267633 15.91452835 -2.14964836 15.8047945 -5.87280273 13.51391602 C-7.95191399 11.22534604 -8.41564981 10.39580633 -8.27514648 7.35742188 C-7.77514648 3.41992188 -7.77514648 3.41992188 -6.54234314 1.70007324 C-4.24197139 0.03369162 -2.82830326 0.02795648 0 0 Z " fill="#D951B3" transform="translate(220.775146484375,404.580078125)"/>
<path d="M0 0 C1.45181923 -0.0238678 1.45181923 -0.0238678 2.93296814 -0.04821777 C3.97675125 -0.04841919 5.02053436 -0.04862061 6.09594727 -0.04882812 C7.16982193 -0.05644165 8.24369659 -0.06405518 9.35011292 -0.07189941 C11.62221958 -0.08270959 13.89437597 -0.08554982 16.16650391 -0.08105469 C19.64578014 -0.08008275 23.12284921 -0.12168828 26.60180664 -0.16601562 C28.80818224 -0.17122272 31.01456552 -0.17391082 33.22094727 -0.17382812 C34.26270615 -0.19022339 35.30446503 -0.20661865 36.37779236 -0.22351074 C43.56750064 -0.15461159 43.56750064 -0.15461159 46.90869141 2.765625 C48.22485352 5.41992188 48.22485352 5.41992188 48.28735352 8.48242188 C46.9019168 12.31274691 45.72262264 13.31146397 42.22485352 15.41992188 C38.83815613 16.00687781 35.4990626 15.98063234 32.06860352 15.95117188 C31.0887146 15.95499878 30.10882568 15.95882568 29.09924316 15.96276855 C27.03156504 15.96548539 24.96385242 15.95814023 22.89624023 15.94140625 C19.73546558 15.91999377 16.57696392 15.94121608 13.41625977 15.96679688 C11.40453601 15.96415356 9.39281367 15.9590285 7.38110352 15.95117188 C6.43827515 15.9592688 5.49544678 15.96736572 4.52404785 15.97570801 C0.23267633 15.91452835 -2.14964836 15.8047945 -5.87280273 13.51391602 C-7.95191399 11.22534604 -8.41564981 10.39580633 -8.27514648 7.35742188 C-7.77514648 3.41992188 -7.77514648 3.41992188 -6.54234314 1.70007324 C-4.24197139 0.03369162 -2.82830326 0.02795648 0 0 Z " fill="#DD53B3" transform="translate(36.775146484375,404.580078125)"/>
<path d="M0 0 C5.28 0 10.56 0 16 0 C16 14.85 16 29.7 16 45 C10.72 45 5.44 45 0 45 C0 30.15 0 15.3 0 0 Z " fill="#665E66" transform="translate(248,333)"/>
<path d="M0 0 C9.1796875 -0.1953125 9.1796875 -0.1953125 12 0 C14 2 14 2 14.265625 3.875 C14.26046875 4.57625 14.2553125 5.2775 14.25 6 C14.25515625 6.70125 14.2603125 7.4025 14.265625 8.125 C14 10 14 10 12 12 C7.98805634 12.27783543 4.02552638 12.0856495 0 12 C0 8.04 0 4.08 0 0 Z " fill="#EAF1FC" transform="translate(300,152)"/>
</svg>
