<?xml version="1.0" encoding="UTF-8"?>
<svg version="1.1" xmlns="http://www.w3.org/2000/svg" width="1200" height="648">
<path d="M0 0 C1.02706055 -0.00701431 2.05412109 -0.01402863 3.11230469 -0.02125549 C6.4056441 -0.03865449 9.69880383 -0.04510697 12.9921875 -0.046875 C14.67825104 -0.04788712 14.67825104 -0.04788712 16.39837646 -0.04891968 C32.43194059 -0.03359998 48.06129973 0.26679624 63.8671875 3.203125 C64.82447754 3.36941406 65.78176758 3.53570312 66.76806641 3.70703125 C114.49041594 12.11351266 159.68813844 32.37801934 195.15625 65.6796875 C197.40973926 67.77731583 199.70058914 69.7837161 202.0546875 71.765625 C206.75668307 75.87023589 210.81748957 80.46292558 214.8671875 85.203125 C215.35880371 85.77708008 215.85041992 86.35103516 216.35693359 86.94238281 C249.24635749 125.59885823 268.06285783 173.1572803 274.8671875 223.203125 C274.98578125 224.07130859 275.104375 224.93949219 275.2265625 225.83398438 C283.19419629 287.53571989 270.77548248 352.55684125 245.8671875 409.203125 C246.5271875 409.533125 247.1871875 409.863125 247.8671875 410.203125 C246.5242055 416.90149164 244.60985225 423.12098856 242.234375 429.51953125 C241.88106613 430.4861116 241.52775726 431.45269196 241.16374207 432.44856262 C240.41344221 434.50053597 239.66082199 436.55166217 238.90603638 438.60198975 C236.95881298 443.89503484 235.03210484 449.195527 233.10546875 454.49609375 C232.54390327 456.03997772 232.54390327 456.03997772 231.97099304 457.61505127 C229.20270909 465.24075502 226.49774851 472.88223427 223.9296875 480.578125 C223.6311084 481.46443604 223.3325293 482.35074707 223.02490234 483.26391602 C219.70821491 493.34692572 216.4680683 504.36563529 220.1171875 514.765625 C221.94346258 517.30936529 223.06391727 518.80148989 225.8671875 520.203125 C231.7455999 520.99444975 236.09548006 519.54490025 240.8671875 516.203125 C244.26188032 513.36703818 247.44480048 510.32211266 250.609375 507.234375 C252.61569225 505.29772975 254.39832356 503.85191308 256.75 502.296875 C262.95647189 498.07276876 264.56145961 493.78353996 266.02392578 486.67114258 C266.82627511 482.23444794 267.56593674 477.78846811 268.30175781 473.34033203 C271.43478932 455.95714773 278.77246761 439.26940178 285.8671875 423.203125 C286.52134644 421.59171631 286.52134644 421.59171631 287.1887207 419.94775391 C288.8671875 417.203125 288.8671875 417.203125 291.31054688 416.05761719 C292.74624023 415.78159668 292.74624023 415.78159668 294.2109375 415.5 C295.28085938 415.28021484 296.35078125 415.06042969 297.453125 414.83398438 C298.57976563 414.62580078 299.70640625 414.41761719 300.8671875 414.203125 C303.1068114 413.72935841 305.34639456 413.25539917 307.5859375 412.78125 C309.8456665 412.33504485 312.10609129 411.89234944 314.3671875 411.453125 C315.51960938 411.21980469 316.67203125 410.98648437 317.859375 410.74609375 C318.96539063 410.53082031 320.07140625 410.31554687 321.2109375 410.09375 C322.20287109 409.89813477 323.19480469 409.70251953 324.21679688 409.50097656 C326.7922575 409.21154565 328.43423331 409.38203904 330.8671875 410.203125 C330.51938232 411.22559326 330.17157715 412.24806152 329.81323242 413.30151367 C328.5041362 417.1554982 327.20342987 421.01227342 325.9050293 424.86987305 C325.34573227 426.52785232 324.78426909 428.18510273 324.22045898 429.84155273 C320.91732408 439.55130129 317.89164985 449.13263589 315.8671875 459.203125 C319.40016433 455.7479104 322.84986707 452.28089433 326.0546875 448.515625 C340.76357417 431.53623905 360.87514913 410.98812843 384.3671875 408.890625 C392.11493145 409.58238785 396.36244807 412.07783558 401.421875 417.97265625 C407.07810058 426.70158815 405.6079097 437.57677138 403.58276367 447.26367188 C400.0314635 462.68444781 394.24835437 477.41837688 388.74462891 492.22265625 C382.40569565 507.43516326 382.40569565 507.43516326 382.8046875 523.390625 C384.87208886 525.51558656 384.87208886 525.51558656 388.4296875 525.890625 C402.35608267 524.85247554 414.87219912 508.62393846 423.52905273 498.86083984 C424.62487924 497.6264034 425.7436671 496.41241032 426.8671875 495.203125 C427.1971875 495.203125 427.5271875 495.203125 427.8671875 495.203125 C428.99722477 512.58831383 428.99722477 512.58831383 426.66015625 517.99609375 C424.87209194 520.0270333 423.02728291 521.57528332 420.8671875 523.203125 C419.32271843 524.65849008 417.78123899 526.117032 416.2421875 527.578125 C400.24412433 541.61872123 381.91614617 555.68733619 359.6484375 555.41796875 C353.76224345 554.96327679 348.67685764 552.84299152 344.25 548.8515625 C340.13195061 543.94247537 337.25886562 537.60053422 336.8671875 531.203125 C336.79177734 530.09130859 336.79177734 530.09130859 336.71484375 528.95703125 C335.86418987 506.05742875 346.53086841 482.23935444 354.70996094 461.2253418 C358.35456931 452.35167381 358.35456931 452.35167381 357.8671875 443.203125 C342.25542063 444.68995994 327.51007761 465.56312097 317.9921875 476.953125 C311.40371022 485.20048673 307.85707924 491.7280345 305.8671875 502.203125 C305.67253906 503.20988281 305.47789062 504.21664063 305.27734375 505.25390625 C303.05444676 519.06182841 303.20032349 533.24797731 302.8671875 547.203125 C298.09966023 548.34818425 293.33077647 549.48734476 288.56054688 550.62109375 C286.93841673 551.00750045 285.31666708 551.39550813 283.6953125 551.78515625 C281.36296519 552.34537693 279.0293042 552.8998007 276.6953125 553.453125 C275.97224915 553.62811523 275.24918579 553.80310547 274.50421143 553.98339844 C271.16013748 554.77058875 268.32805386 555.203125 264.8671875 555.203125 C263.43198621 542.81169956 262.57631381 530.67837456 262.8671875 518.203125 C261.74126505 519.18123082 260.61653517 520.16070935 259.4921875 521.140625 C258.75355469 521.78386719 258.01492188 522.42710937 257.25390625 523.08984375 C255.69699663 524.46838402 254.15686326 525.86617722 252.63671875 527.28515625 C237.88808107 540.99620133 219.08576336 555.91838756 198.05859375 555.51171875 C191.88803015 554.91505471 187.85057669 552.52160795 183.6171875 548.078125 C177.29401045 539.94586459 176.18272715 531.26883985 175.8671875 521.203125 C175.3103125 521.904375 174.7534375 522.605625 174.1796875 523.328125 C169.93477211 528.60558738 165.62130364 533.59668981 160.76171875 538.3125 C158.88478907 540.18555972 157.15397181 542.12697804 155.4296875 544.140625 C149.14748213 551.42227213 142.23005176 558.0281989 134.8671875 564.203125 C134.34866211 564.6460791 133.83013672 565.0890332 133.29589844 565.54541016 C66.74759985 622.2285087 -23.09719954 644.87196815 -108.8828125 647.765625 C-110.73229492 647.8282251 -110.73229492 647.8282251 -112.61914062 647.89208984 C-121.79723124 648.18749607 -130.9500578 648.39603215 -140.1328125 648.203125 C-141.08397949 648.18523926 -142.03514648 648.16735352 -143.01513672 648.14892578 C-197.9954587 646.99100048 -287.92862923 644.53434155 -330.1328125 604.203125 C-363.96827408 564.22555734 -370.41661558 499.3495751 -374.1328125 449.203125 C-374.20338867 448.27145508 -374.27396484 447.33978516 -374.34667969 446.37988281 C-379.93583613 368.39784287 -368.57949307 286.2156668 -335.1328125 215.203125 C-334.53218994 213.92139404 -334.53218994 213.92139404 -333.91943359 212.61376953 C-322.55477394 188.58916279 -308.35586016 166.4534319 -291.1328125 146.203125 C-290.22340003 145.10853653 -289.31457964 144.01345596 -288.40625 142.91796875 C-279.4297624 132.17591009 -269.7997343 121.94100813 -259.09765625 112.890625 C-256.6732352 110.80841845 -254.34931218 108.62810293 -252.0078125 106.453125 C-246.24834186 101.20789281 -240.20668414 96.40815305 -234.02929688 91.66699219 C-232.1096649 90.18525772 -230.20640056 88.68432903 -228.3046875 87.1796875 C-164.93525686 37.39441352 -81.82400859 0.37561185 0 0 Z " fill="#F79839" transform="translate(772.1328125,-0.203125)"/>
<path d="M0 0 C61.15608936 -1.50022153 120.07238537 27.28870899 163.90234375 68.38671875 C164.87892034 69.31899566 165.85548241 70.25128777 166.83203125 71.18359375 C167.6223877 71.92512695 167.6223877 71.92512695 168.42871094 72.68164062 C209.29421101 111.14614099 225.2323341 169.54201841 226.95800781 224.17163086 C227.05020261 228.48805288 227.07860489 232.80376637 227.08203125 237.12109375 C227.08270599 237.8971698 227.08338074 238.67324585 227.08407593 239.47283936 C227.03814565 273.17193007 226.50880976 325.31212582 202.32421875 351.9453125 C182.93755194 369.35684868 153.71338504 373.81954389 128.83203125 377.18359375 C127.96239746 377.3021875 127.09276367 377.42078125 126.19677734 377.54296875 C83.53198564 383.05339351 38.54737104 378.90279688 -2.16796875 365.18359375 C-2.87743652 364.94527832 -3.5869043 364.70696289 -4.31787109 364.46142578 C-14.08063364 361.12316128 -23.26898978 356.9110641 -32.39599609 352.11230469 C-33.96450514 351.29023133 -35.54400912 350.48921142 -37.125 349.69140625 C-59.42048899 338.1356184 -78.80212866 319.82070757 -94.16796875 300.18359375 C-95.03606587 299.11580762 -95.90593755 298.04946236 -96.77734375 296.984375 C-126.53728038 260.33188223 -149.08008906 211.56472232 -149.37109375 163.66015625 C-149.37815338 162.88057556 -149.38521301 162.10099487 -149.39248657 161.29779053 C-149.62150155 128.60681707 -149.62150155 128.60681707 -146.16796875 115.18359375 C-145.96397461 114.37905762 -145.75998047 113.57452148 -145.54980469 112.74560547 C-138.51171419 85.82772661 -125.82345541 61.95390628 -106.16796875 42.18359375 C-105.46849121 41.47807373 -105.46849121 41.47807373 -104.75488281 40.75830078 C-76.57560438 12.74341759 -38.71906352 2.24389147 0 0 Z " fill="#3399CD" transform="translate(149.16796875,262.81640625)"/>
<path d="M0 0 C6.87662281 7.18588891 7.3745735 17.51030937 7.3125 26.9375 C7.30686035 27.85136475 7.3012207 28.76522949 7.29541016 29.70678711 C6.66965721 65.44595419 -9.69485868 99.02520913 -31 127 C-31.42748535 127.56493164 -31.8549707 128.12986328 -32.29541016 128.71191406 C-39.98251348 138.82277615 -48.01190408 149.01190408 -57 158 C-59.73292657 174.11395382 -60.17435432 193.91723763 -51 208 C-47.34433838 211.74482409 -44.30890779 212.27976586 -39.25 212.5 C-24.07214758 211.9011205 -13.34845851 201.51906206 -2.8125 191.62890625 C0.25655863 188.76018894 3.39806899 185.9909051 6.57421875 183.2421875 C9.65194595 180.56077038 9.32243383 178.50528915 9.75 174.375 C12.13948814 154.99488382 21.02114276 137.42613989 34 123 C34.95132813 121.83597656 34.95132813 121.83597656 35.921875 120.6484375 C46.34173123 108.11877566 62.61596952 97.38352213 79 95 C91.44040917 94.11229241 102.88919177 94.97658444 113 103 C119.19945731 108.74961007 122.0654789 114.87602146 122.4375 123.3125 C122.062424 134.61166465 116.90313279 142.90182978 109.2265625 150.83203125 C95.83254251 163.35007103 67.80356258 179 49 179 C52.5954612 191.21820444 56.30709102 201.61505057 68.14453125 208.19140625 C76.50412693 212.06734157 86.22250918 212.43988213 95.0546875 209.7421875 C104.03944966 206.31426619 110.78451021 201.28898721 118 195 C119.22070514 194.03918262 120.44345856 193.08096332 121.66796875 192.125 C130.12768641 185.26343549 133.40035888 180.03785983 135.1640625 169.34765625 C138.89974122 147.23580725 157.02047218 125.27068061 174.609375 112.23046875 C187.38715719 103.24553481 201.85951649 94.59118339 217.8125 94.625 C219.00008911 94.62741699 219.00008911 94.62741699 220.21166992 94.62988281 C228.54758132 94.8041706 236.03456372 96.86885716 242 103 C244.11745392 105.92990626 246.09143547 108.93055601 248 112 C251.88756063 110.5329706 255.4843783 108.74847217 259.140625 106.77734375 C260.29304688 106.15666016 261.44546875 105.53597656 262.6328125 104.89648438 C263.22610352 104.57510498 263.81939453 104.25372559 264.43066406 103.92260742 C266.25663496 102.9339074 268.08516132 101.95006391 269.9140625 100.96679688 C275.26769399 98.42922529 275.26769399 98.42922529 280 95 C281.85287502 94.92773498 283.70833878 94.9161878 285.5625 94.9375 C287.08037109 94.95103516 287.08037109 94.95103516 288.62890625 94.96484375 C289.41136719 94.97644531 290.19382812 94.98804688 291 95 C289.60741146 100.74687948 288.03022977 106.40507019 286.3125 112.0625 C285.92384766 113.35353638 285.92384766 113.35353638 285.52734375 114.6706543 C284.12429964 119.3228312 282.7024463 123.96873269 281.26171875 128.609375 C277.39072659 141.11375494 273.84520788 153.66237045 270.66552734 166.36083984 C270.03901708 168.8452771 269.39095276 171.32311391 268.73828125 173.80078125 C266.05286291 184.2198409 263.236197 195.18018749 269 205 C272.66791324 207.4452755 274.21907294 207.29022529 278.43212891 206.64868164 C286.43621379 204.62673322 292.86579199 197.63711801 298.625 192.0625 C299.69234375 191.04639648 299.69234375 191.04639648 300.78125 190.00976562 C302.86611098 188.0184561 304.93540204 186.01229146 307 184 C307.62148926 183.4004248 308.24297852 182.80084961 308.88330078 182.18310547 C312.80131766 178.35065816 316.28868715 174.34496558 319.625 170 C320.07617188 169.4225 320.52734375 168.845 320.9921875 168.25 C324.10531027 164.24230172 327.0715171 160.14427905 330 156 C329.39671875 155.5875 328.7934375 155.175 328.171875 154.75 C322.83453325 150.89334015 318.6737184 147.54981799 317 141 C315.37195158 127.31303479 320.39843743 114.55371764 328.73046875 103.7578125 C333.32747167 98.85574532 338.23167027 95.43178778 345 94.65625 C350.6284557 94.49070719 354.35425153 94.55668055 359 98 C361.23989708 100.28869658 361.9338839 101.50875028 362.36328125 104.69921875 C362.15966706 116.68113062 358.87292561 126.78034145 355 138 C375.2675969 130.98716279 388.18808399 120.80105521 399 102 C399.63228516 100.31583984 399.63228516 100.31583984 400.27734375 98.59765625 C402 96 402 96 405.79296875 95.1953125 C407.25704106 95.14231441 408.7224777 95.11988202 410.1875 95.125 C410.93708984 95.104375 411.68667969 95.08375 412.45898438 95.0625 C414.30550787 95.01545482 416.15288219 95.00425113 418 95 C416.657018 101.69836664 414.74266475 107.91786356 412.3671875 114.31640625 C412.01387863 115.2829866 411.66056976 116.24956696 411.29655457 117.24543762 C410.54625471 119.29741097 409.79363449 121.34853717 409.03884888 123.39886475 C407.09162548 128.69190984 405.16491734 133.992402 403.23828125 139.29296875 C402.86390427 140.32222473 402.48952728 141.35148071 402.10380554 142.41192627 C399.33552159 150.03763002 396.63056101 157.67910927 394.0625 165.375 C393.61463135 166.70446655 393.61463135 166.70446655 393.15771484 168.06079102 C389.84102741 178.14380072 386.6008808 189.16251029 390.25 199.5625 C392.07627508 202.10624029 393.19672977 203.59836489 396 205 C401.8784124 205.79132475 406.22829256 204.34177525 411 201 C414.39469282 198.16391318 417.57761298 195.11898766 420.7421875 192.03125 C422.74850475 190.09460475 424.53113606 188.64878808 426.8828125 187.09375 C433.08928439 182.86964376 434.69427211 178.58041496 436.15673828 171.46801758 C436.95908761 167.03132294 437.69874924 162.58534311 438.43457031 158.13720703 C441.56760182 140.75402273 448.90528011 124.06627678 456 108 C456.43610596 106.92572754 456.87221191 105.85145508 457.3215332 104.74462891 C459 102 459 102 461.44335938 100.85449219 C462.40048828 100.67047852 463.35761719 100.48646484 464.34375 100.296875 C465.41367188 100.07708984 466.48359375 99.85730469 467.5859375 99.63085938 C468.71257813 99.42267578 469.83921875 99.21449219 471 99 C473.2396239 98.52623341 475.47920706 98.05227417 477.71875 97.578125 C479.978479 97.13191985 482.23890379 96.68922444 484.5 96.25 C485.65242188 96.01667969 486.80484375 95.78335938 487.9921875 95.54296875 C489.09820313 95.32769531 490.20421875 95.11242187 491.34375 94.890625 C492.33568359 94.69500977 493.32761719 94.49939453 494.34960938 94.29785156 C496.92507 94.00842065 498.56704581 94.17891404 501 95 C500.65219482 96.02246826 500.30438965 97.04493652 499.94604492 98.09838867 C498.6369487 101.9523732 497.33624237 105.80914842 496.0378418 109.66674805 C495.47854477 111.32472732 494.91708159 112.98197773 494.35327148 114.63842773 C491.05013658 124.34817629 488.02446235 133.92951089 486 144 C489.53297683 140.5447854 492.98267957 137.07776933 496.1875 133.3125 C510.89638667 116.33311405 531.00796163 95.78500343 554.5 93.6875 C562.24774395 94.37926285 566.49526057 96.87471058 571.5546875 102.76953125 C577.21091308 111.49846315 575.7407222 122.37364638 573.71557617 132.06054688 C570.164276 147.48132281 564.38116687 162.21525188 558.87744141 177.01953125 C552.53850815 192.23203826 552.53850815 192.23203826 552.9375 208.1875 C555.00490136 210.31246156 555.00490136 210.31246156 558.5625 210.6875 C572.48889517 209.64935054 585.00501162 193.42081346 593.66186523 183.65771484 C594.75769174 182.4232784 595.8764796 181.20928532 597 180 C597.33 180 597.66 180 598 180 C599.13003727 197.38518883 599.13003727 197.38518883 596.79296875 202.79296875 C595.00490444 204.8239083 593.16009541 206.37215832 591 208 C589.45553093 209.45536508 587.91405149 210.913907 586.375 212.375 C570.37693683 226.41559623 552.04895867 240.48421119 529.78125 240.21484375 C523.89505595 239.76015179 518.80967014 237.63986652 514.3828125 233.6484375 C510.26476311 228.73935037 507.39167812 222.39740922 507 216 C506.92458984 214.88818359 506.92458984 214.88818359 506.84765625 213.75390625 C505.99700237 190.85430375 516.66368091 167.03622944 524.84277344 146.0222168 C528.48738181 137.14854881 528.48738181 137.14854881 528 128 C512.38823313 129.48683494 497.64289011 150.35999597 488.125 161.75 C481.53652272 169.99736173 477.98989174 176.5249095 476 187 C475.80535156 188.00675781 475.61070312 189.01351562 475.41015625 190.05078125 C473.18725926 203.85870341 473.33313599 218.04485231 473 232 C468.23247273 233.14505925 463.46358897 234.28421976 458.69335938 235.41796875 C457.07122923 235.80437545 455.44947958 236.19238313 453.828125 236.58203125 C451.49577769 237.14225193 449.1621167 237.6966757 446.828125 238.25 C446.10506165 238.42499023 445.38199829 238.59998047 444.63702393 238.78027344 C441.29294998 239.56746375 438.46086636 240 435 240 C433.56479871 227.60857456 432.70912631 215.47524956 433 203 C431.87407755 203.97810582 430.74934767 204.95758435 429.625 205.9375 C428.88636719 206.58074219 428.14773438 207.22398437 427.38671875 207.88671875 C425.82980913 209.26525902 424.28967576 210.66305222 422.76953125 212.08203125 C408.02089357 225.79307633 389.21857586 240.71526256 368.19140625 240.30859375 C362.02084265 239.71192971 357.98338919 237.31848295 353.75 232.875 C346.77354001 223.8208511 345.85449097 214.11065476 347 203 C349.93102606 183.70569598 359.84791884 166.36201808 370 150 C366.17458827 150 362.40935727 151.83706598 358.81445312 153.09741211 C355.35037006 154.2911948 352.13775626 155.18147019 348.5 155.5625 C343.55068119 157.59525594 342.53029991 160.76281154 340.09375 165.38671875 C330.88864309 182.11025384 314.57525181 197.71420286 300.21484375 210.0625 C297.69939336 212.26296454 295.26114948 214.5379925 292.8125 216.8125 C279.50332597 228.89002394 266.3043597 239.60892459 247.5546875 239.39453125 C242.13605248 238.79312231 238.69906828 236.98240117 235 233 C232.90020418 229.80375907 231.35522002 226.57037886 230 223 C229.65066406 222.14148438 229.30132813 221.28296875 228.94140625 220.3984375 C227.59141693 215.52503208 227.27085873 210.65435267 226.875 205.625 C226.74544922 204.09166016 226.74544922 204.09166016 226.61328125 202.52734375 C226.40227374 200.01869888 226.19805006 197.50969545 226 195 C225.48953125 195.70382812 224.9790625 196.40765625 224.453125 197.1328125 C196.30792012 235.35839218 196.30792012 235.35839218 175 239 C165.06964538 239.92668056 156.75165133 239.31848408 148.6328125 233.22265625 C139.62827141 225.08218729 134.814427 213.63296492 132 202 C131.175 202.79921875 130.35 203.5984375 129.5 204.421875 C108.33086282 224.66831865 86.58840527 239.76201427 56.28808594 239.47094727 C41.60896368 239.01085173 31.17018537 233.73038854 21.125 223.0625 C15.06223587 215.98571723 12.41273783 208.91981865 10 200 C9.40316406 200.57105469 8.80632812 201.14210938 8.19140625 201.73046875 C-6.60270829 215.55736034 -23.06879488 228.43897405 -42 236 C-42.73863281 236.3196875 -43.47726562 236.639375 -44.23828125 236.96875 C-53.44690019 240.40408971 -65.32932942 240.80403094 -74.68359375 237.828125 C-77.63390239 236.3990117 -80.29681638 234.84954669 -83 233 C-84.093125 232.278125 -85.18625 231.55625 -86.3125 230.8125 C-93.76320305 223.01525263 -97.36314204 214.334782 -100 204 C-100.1757959 203.37947754 -100.3515918 202.75895508 -100.53271484 202.11962891 C-107.33635551 171.25797361 -95.16238735 133.23777028 -86 104 C-85.63777344 102.84081055 -85.27554688 101.68162109 -84.90234375 100.48730469 C-76.1586683 72.78170933 -65.44054715 45.79578388 -52 20 C-51.6071582 19.13971191 -51.21431641 18.27942383 -50.80957031 17.39306641 C-48.3194742 14.10003861 -45.31779258 13.108214 -41.55078125 11.7734375 C-40.81933395 11.49907867 -40.08788666 11.22471985 -39.33427429 10.94204712 C-36.99926092 10.07034981 -34.65641703 9.22242543 -32.3125 8.375 C-30.75528182 7.79843248 -29.19863386 7.22032242 -27.64257812 6.640625 C-24.10049844 5.32431208 -20.55333685 4.02309255 -16.99990845 2.73773193 C-15.60964165 2.22488635 -14.22515182 1.69621587 -12.84555054 1.15533447 C-8.01918739 -0.72929235 -5.01682306 -1.79848374 0 0 Z " fill="#020101" transform="translate(602,315)"/>
<path d="M0 0 C4.63325802 3.05373824 7.01019807 6.60802814 8.75 11.8125 C10.64877579 30.23309112 5.21005326 47.25663429 -2.25 63.8125 C-2.69931885 64.82666992 -2.69931885 64.82666992 -3.15771484 65.86132812 C-8.61059696 78.02041346 -16.29218683 92.14433218 -29.125 97.6875 C-33.50077698 99.08402457 -37.71607711 99.80556749 -42.25 98.8125 C-46.98896626 96.22760931 -49.64291998 92.86522516 -51.65234375 87.8449707 C-57.7643942 67.05950503 -47.04188875 43.0856638 -37.52148438 25.11572266 C-30.07887669 11.63385613 -17.70517261 -6.46919769 0 0 Z " fill="#F69738" transform="translate(829.25,424.1875)"/>
<path d="M0 0 C3.3265608 1.45003932 3.91977656 2.76835025 5.4375 6.0625 C5.89868606 9.00791184 5.91266724 11.89809224 5.875 14.875 C5.86742676 15.71595215 5.85985352 16.5569043 5.85205078 17.42333984 C5.63748681 25.72555587 3.95238002 33.18566909 1.4375 41.0625 C1.23914551 41.71331543 1.04079102 42.36413086 0.83642578 43.03466797 C-6.37352065 66.44261658 -19.92549235 99.20471989 -40.5625 114.0625 C-40.13895448 104.32889446 -37.89886481 95.0967799 -35.5625 85.6875 C-35.36375275 84.87902618 -35.16500549 84.07055237 -34.9602356 83.23757935 C-14.52381973 0.35423951 -14.52381973 0.35423951 0 0 Z " fill="#F39637" transform="translate(590.5625,332.9375)"/>
<path d="M0 0 C2.93969534 2.0878882 4.39601654 4.79203308 6 8 C6.92696169 18.94527842 5.49986073 29.85948663 -1.1640625 38.84765625 C-10.6051134 49.91578188 -21.95241562 55.79045258 -36 59 C-36.89563635 40.51506088 -33.75558272 22.74194111 -21.62109375 8.13671875 C-15.03250991 1.33104813 -9.70094269 -1.6958685 0 0 Z " fill="#F59738" transform="translate(686,424)"/>
<path d="M0 0 C2.97 0 5.94 0 9 0 C9 13.53 9 27.06 9 41 C13.97382334 36.64790458 18.79875415 32.36206628 23.4375 27.6875 C23.96537109 27.16349609 24.49324219 26.63949219 25.03710938 26.09960938 C27.86976913 23.31556864 27.86976913 23.31556864 30 20 C33.63 20 37.26 20 41 20 C35.72898586 26.41069287 29.90871848 32.18590512 24 38 C29.06808661 47.13746203 34.45420075 56.00820268 40.13769531 64.77661133 C40.88937988 65.9467981 40.88937988 65.9467981 41.65625 67.140625 C42.33397461 68.18524902 42.33397461 68.18524902 43.02539062 69.25097656 C44 71 44 71 44 73 C40.40595317 73.86768837 37.57003966 74.05366193 34 73 C30.42069056 69.14083958 28.07657427 64.61711168 25.625 60 C24.60458234 58.13796608 23.57397476 56.28306855 22.5262146 54.4362793 C21.58311828 52.76554657 20.67276847 51.07645525 19.76416016 49.38671875 C19.1819873 48.59910156 18.59981445 47.81148438 18 47 C14.14843626 46.66180853 14.14843626 46.66180853 11.796875 48.296875 C8.91793717 52.62779887 9.32104521 57.1605796 9.25 62.25 C9.22035156 63.28125 9.19070313 64.3125 9.16015625 65.375 C9.08955222 67.91674495 9.03680991 70.45757783 9 73 C6.03 73 3.06 73 0 73 C0 48.91 0 24.82 0 0 Z " fill="#FEF9F3" transform="translate(791,282)"/>
<path d="M0 0 C3.53337564 2.15338773 5.57000608 4.614596 7.375 8.375 C7.625 11.75 7.625 11.75 7.375 14.375 C4.405 14.375 1.435 14.375 -1.625 14.375 C-1.955 12.395 -2.285 10.415 -2.625 8.375 C-5.8015511 7.31614963 -8.22488011 7.17450734 -11.5625 7.125 C-12.60277344 7.09921875 -13.64304687 7.0734375 -14.71484375 7.046875 C-17.98508845 7.41560058 -19.32771725 8.05056261 -21.625 10.375 C-22.29166667 13.375 -22.29166667 13.375 -21.625 16.375 C-17.68125607 20.4752417 -11.67655661 21.10353808 -6.35546875 22.39257812 C-0.51464513 23.89408769 3.97650565 25.84466452 8.22265625 30.32421875 C10.3777544 34.15956292 9.94544097 38.11964153 9.375 42.375 C8.26214758 46.077509 6.69428377 48.48826828 3.46875 50.65625 C-4.58451254 54.86317819 -12.60558804 55.34649909 -21.5 53.625 C-26.48622296 51.63051082 -28.91463968 49.72223509 -31.4375 44.9375 C-32.49410968 41.76767097 -32.92377408 39.6615149 -32.625 36.375 C-29.655 36.375 -26.685 36.375 -23.625 36.375 C-23.233125 37.48875 -22.84125 38.6025 -22.4375 39.75 C-21.33403463 42.25557504 -20.85368748 43.21561175 -18.5625 44.8125 C-13.06126349 45.86592827 -7.86986402 46.09335649 -2.5 44.375 C-0.2910398 42.01877579 -0.34016139 41.31323726 -0.3125 38.1875 C-0.4671875 36.3003125 -0.4671875 36.3003125 -0.625 34.375 C-4.55827872 32.81807718 -8.48496952 31.39818982 -12.54296875 30.203125 C-13.24357422 29.99453857 -13.94417969 29.78595215 -14.66601562 29.57104492 C-16.0746533 29.15527891 -17.48609057 28.74885999 -18.90039062 28.3527832 C-24.08699031 26.81324678 -28.1484209 24.90627846 -30.9375 20.125 C-32.27116286 14.79034858 -32.43885945 11.0027189 -30 6.125 C-22.68986055 -2.339372 -10.295775 -4.69051375 0 0 Z " fill="#FEFBF7" transform="translate(699.625,302.625)"/>
<path d="M0 0 C4.29702802 1.92872865 7.3656258 4.80449842 9.625 8.9375 C10.34903659 11.95351997 10.61095391 14.84033692 10.625 17.9375 C7.985 17.9375 5.345 17.9375 2.625 17.9375 C2.37105469 17.38320313 2.11710938 16.82890625 1.85546875 16.2578125 C1.51128906 15.53335937 1.16710937 14.80890625 0.8125 14.0625 C0.47605469 13.34320313 0.13960937 12.62390625 -0.20703125 11.8828125 C-1.36967097 9.63207194 -1.36967097 9.63207194 -4.375 7.9375 C-9.56437344 7.17435685 -13.94415843 6.98360562 -18.375 9.9375 C-23.54946252 17.69919377 -24.61211711 25.2673769 -22.90625 34.46484375 C-21.40032572 39.8521086 -19.39733232 43.10673087 -14.375 45.9375 C-10.89353068 46.61259261 -7.8513443 46.6571439 -4.375 45.9375 C-0.13212457 42.9321299 1.35124932 39.91670721 2.625 34.9375 C5.595 34.9375 8.565 34.9375 11.625 34.9375 C11.34731518 41.46309318 9.04823743 46.11384318 4.625 50.9375 C-1.34545655 55.2733267 -8.20397155 55.96647893 -15.375 54.9375 C-21.53466427 53.14270127 -25.94827759 49.30502094 -29.375 43.9375 C-32.36011158 38.25225169 -32.92246852 33.50500961 -32.875 27.125 C-32.86927979 26.2386084 -32.86355957 25.3522168 -32.85766602 24.43896484 C-32.64279877 16.57496826 -31.12122835 10.90114339 -25.625 5.0859375 C-18.18702634 -1.6787713 -9.71832057 -3.03932033 0 0 Z " fill="#FEFBF8" transform="translate(749.375,302.0625)"/>
<path d="M0 0 C2.64 0 5.28 0 8 0 C8 4.62 8 9.24 8 14 C10.97 14 13.94 14 17 14 C17 16.31 17 18.62 17 21 C14.03 21 11.06 21 8 21 C8.33 33.87 8.66 46.74 9 60 C11.64 60.33 14.28 60.66 17 61 C17.04241723 63.33294775 17.04092937 65.66702567 17 68 C15.28055699 69.71944301 13.09584777 69.29345984 10.75 69.375 C9.79609375 69.42398438 8.8421875 69.47296875 7.859375 69.5234375 C3.75322077 68.77176446 2.52279945 67.31004487 0 64 C-0.68173214 60.69260368 -0.5832059 57.47028377 -0.48828125 54.10546875 C-0.47766914 52.68443596 -0.47766914 52.68443596 -0.46684265 51.23469543 C-0.43892334 48.21814979 -0.37618915 45.2034816 -0.3125 42.1875 C-0.28741396 40.13869874 -0.26460133 38.0898683 -0.24414062 36.04101562 C-0.18910459 31.02662379 -0.10284856 26.01362986 0 21 C-2.31 21 -4.62 21 -7 21 C-7 18.69 -7 16.38 -7 14 C-4.69 14 -2.38 14 0 14 C0 9.38 0 4.76 0 0 Z " fill="#FEFCF9" transform="translate(867,288)"/>
<path d="M0 0 C2.64 0 5.28 0 8 0 C8 17.16 8 34.32 8 52 C5.36 52 2.72 52 0 52 C0 34.84 0 17.68 0 0 Z " fill="#FEFEFD" transform="translate(843,302)"/>
<path d="M0 0 C2.64 0 5.28 0 8 0 C8 17.16 8 34.32 8 52 C5.36 52 2.72 52 0 52 C0 34.84 0 17.68 0 0 Z " fill="#FEFDFC" transform="translate(770,302)"/>
<path d="M0 0 C2.64 0 5.28 0 8 0 C8 3.3 8 6.6 8 10 C5.36 10 2.72 10 0 10 C0 6.7 0 3.4 0 0 Z " fill="#FFFFFF" transform="translate(843,282)"/>
<path d="M0 0 C2.64 0 5.28 0 8 0 C8 3.3 8 6.6 8 10 C5.36 10 2.72 10 0 10 C0 6.7 0 3.4 0 0 Z " fill="#FFFFFF" transform="translate(770,282)"/>
</svg>
